<svg width="16" height="16" viewBox="0 0 16 16" fill="none" xmlns="http://www.w3.org/2000/svg">
<path d="M0 8C0 3.58172 3.58172 0 8 0V0C12.4183 0 16 3.58172 16 8V8C16 12.4183 12.4183 16 8 16V16C3.58172 16 0 12.4183 0 8V8Z" fill="#DDF0C9"/>
<path d="M10.4135 5.62204C10.5763 5.45932 10.8402 5.45932 11.0029 5.62204C11.1656 5.78476 11.1656 6.04869 11.0029 6.21139L7.0444 10.1694C6.88169 10.3321 6.61825 10.3321 6.45553 10.1694L4.99703 8.71139C4.83432 8.54868 4.83433 8.28476 4.99703 8.12204C5.15975 7.95932 5.42367 7.95932 5.58639 8.12204L6.74996 9.28561L10.4135 5.62204Z" fill="#2F3130"/>
</svg>
