<svg width="20" height="20" viewBox="0 0 20 20" fill="none" xmlns="http://www.w3.org/2000/svg">
<path fill-rule="evenodd" clip-rule="evenodd" d="M9.16781 3.33464C9.59143 3.33507 9.94695 3.65345 9.99463 4.07438C10.2128 6.00016 10.7948 7.37463 11.7126 8.30941C12.6255 9.23914 13.9682 9.83225 15.9077 10.0046C16.3378 10.0429 16.6674 10.4036 16.667 10.8354C16.6665 11.2675 16.3357 11.6275 15.9053 11.6647C13.9986 11.8298 12.6264 12.4224 11.6906 13.3582C10.7548 14.2941 10.1622 15.6663 9.99707 17.5729C9.95981 18.0033 9.59982 18.3341 9.16781 18.3346C8.73595 18.3351 8.37529 18.0055 8.33691 17.5754C8.16461 15.6358 7.5715 14.2931 6.64176 13.3802C5.70698 12.4625 4.33252 11.8804 2.40674 11.6623C1.98581 11.6146 1.66743 11.2591 1.66699 10.8354C1.66658 10.4118 1.98429 10.0555 2.40511 10.007C4.36416 9.781 5.70819 9.19904 6.61979 8.28743C7.5314 7.37583 8.11336 6.0318 8.33936 4.07275L8.35156 3.99463C8.43234 3.61309 8.77073 3.33425 9.16781 3.33464ZM9.16537 7.46305C8.81869 8.22594 8.36865 8.89534 7.79818 9.46582C7.2277 10.0363 6.5583 10.4863 5.79541 10.833C6.55833 11.1776 7.23314 11.6253 7.80957 12.1912C8.37114 12.7427 8.82028 13.3876 9.16537 14.1216C9.5084 13.387 9.95505 12.737 10.5122 12.1799C11.0694 11.6227 11.7194 11.176 12.4539 10.833C11.7199 10.4879 11.075 10.0388 10.5236 9.47721C9.95761 8.90078 9.50991 8.22597 9.16537 7.46305Z" fill="#646864"/>
<path d="M15.417 1.66797C15.5816 1.66814 15.7206 1.7917 15.7393 1.95524C15.8241 2.70426 16.0505 3.23883 16.4074 3.60238C16.7625 3.96392 17.284 4.19456 18.0382 4.26156C18.2055 4.27641 18.3336 4.41679 18.3337 4.58464C18.3335 4.75264 18.2049 4.89322 18.0374 4.90771C17.296 4.97191 16.7624 5.20216 16.3984 5.56608C16.0345 5.93001 15.8043 6.46362 15.7401 7.20508C15.7257 7.37246 15.585 7.50111 15.417 7.5013C15.2491 7.50132 15.1088 7.37313 15.0939 7.20589C15.0269 6.45166 14.7963 5.93005 14.4347 5.57503C14.0712 5.21807 13.5366 4.99174 12.7876 4.9069C12.6241 4.88823 12.5005 4.74928 12.5003 4.58464C12.5003 4.42004 12.624 4.28123 12.7876 4.26237C13.5493 4.17446 14.0721 3.9487 14.4266 3.59424C14.781 3.23977 15.0068 2.71694 15.0947 1.95524C15.1135 1.79169 15.2524 1.66797 15.417 1.66797Z" fill="#646864"/>
</svg>
