<svg width="20" height="20" viewBox="0 0 20 20" fill="none" xmlns="http://www.w3.org/2000/svg">
<path d="M9.98861 1.65625C14.5909 1.65625 18.3219 5.38721 18.3219 9.98958C18.3219 14.5919 14.5909 18.3229 9.98861 18.3229C6.35889 18.3229 3.27331 16.0027 2.12972 12.7671C1.97645 12.3333 2.20377 11.8577 2.63753 11.7043C3.07146 11.5508 3.54781 11.7781 3.70117 12.2121C4.61682 14.8024 7.08724 16.6562 9.98861 16.6562C13.6704 16.6562 16.6553 13.6715 16.6553 9.98958C16.6553 6.30768 13.6704 3.32292 9.98861 3.32292C7.52212 3.32292 5.3672 4.66261 4.21387 6.65625H5.82194C6.28217 6.65625 6.65527 7.02935 6.65527 7.48958C6.65527 7.94982 6.28217 8.32292 5.82194 8.32292H2.48861C2.02837 8.32292 1.65527 7.94982 1.65527 7.48958V4.15625C1.65527 3.69602 2.02837 3.32292 2.48861 3.32292C2.94884 3.32292 3.32194 3.69602 3.32194 4.15625V4.98877C4.84179 2.96579 7.2617 1.65625 9.98861 1.65625Z" fill="#646864"/>
<path d="M9.98861 5.82292C10.4489 5.82292 10.8219 6.19602 10.8219 6.65625V9.64453L13.0778 11.9004C13.4032 12.2258 13.4032 12.7534 13.0778 13.0788C12.7524 13.4042 12.2248 13.4042 11.8994 13.0788L9.39941 10.5788C9.24316 10.4225 9.15527 10.2106 9.15527 9.98958V6.65625C9.15527 6.19602 9.52836 5.82292 9.98861 5.82292Z" fill="#646864"/>
</svg>
