<svg width="20" height="20" viewBox="0 0 20 20" fill="none" xmlns="http://www.w3.org/2000/svg">
<path fill-rule="evenodd" clip-rule="evenodd" d="M15.835 2.5C17.2156 2.5 18.335 3.61927 18.335 5V10C18.335 11.3808 17.2156 12.5 15.835 12.5H15.002V13.333C15.002 14.7137 13.8824 15.8328 12.502 15.833H8.9668L5.40625 17.8115C5.14828 17.9548 4.83348 17.9513 4.5791 17.8018C4.32473 17.652 4.16797 17.3782 4.16797 17.083V15.833C2.78741 15.8328 1.66797 14.7136 1.66797 13.333V8.33301C1.66814 6.95255 2.78751 5.83318 4.16797 5.83301H5.00195V5C5.00195 3.61929 6.12124 2.5 7.50195 2.5H15.835ZM4.16797 7.5C3.70799 7.50018 3.33514 7.87303 3.33496 8.33301V13.333C3.33496 13.7932 3.70787 14.1668 4.16797 14.167H5.00195C5.46204 14.1672 5.83496 14.5399 5.83496 15V15.667L8.34668 14.2715L8.44238 14.2256C8.54039 14.1864 8.64578 14.167 8.75195 14.167H12.502C12.962 14.1668 13.335 13.7931 13.335 13.333V11.7002C13.3345 11.6892 13.333 11.6781 13.333 11.667C13.333 11.6553 13.3345 11.6434 13.335 11.6318V8.33301C13.3348 7.87305 12.9619 7.50018 12.502 7.5H4.16797ZM7.50195 4.16699C7.04172 4.16699 6.66797 4.53976 6.66797 5V5.83301H12.502C13.8823 5.83318 15.0018 6.95253 15.002 8.33301V10.833H15.835C16.2952 10.833 16.668 10.4602 16.668 10V5C16.668 4.53978 16.2952 4.16699 15.835 4.16699H7.50195Z" fill="#646864"/>
</svg>
