<svg width="20" height="20" viewBox="0 0 20 20" fill="none" xmlns="http://www.w3.org/2000/svg">
<path d="M16.667 10.0013C16.667 9.81136 16.5719 9.63386 16.4139 9.52848L15.7205 9.06624C14.8712 8.49984 14.4607 7.46681 14.6903 6.47184L14.8221 5.90137C14.8687 5.69922 14.8077 5.48738 14.661 5.34066C14.5143 5.19394 14.3024 5.13293 14.1003 5.17952L13.5298 5.31136C12.5349 5.54091 11.5018 5.13057 10.9354 4.28109L10.4731 3.58773C10.3678 3.42966 10.1902 3.33464 10.0003 3.33464C9.8104 3.33464 9.63289 3.42966 9.52751 3.58773L9.06527 4.28109C8.49883 5.13057 7.46576 5.54091 6.47087 5.31136L5.90039 5.17952C5.69822 5.13294 5.48639 5.19395 5.33968 5.34066C5.19298 5.48736 5.13197 5.69919 5.17855 5.90137L5.31038 6.47184C5.53993 7.46674 5.1296 8.4998 4.28011 9.06624L3.58675 9.52848C3.42868 9.63386 3.33366 9.81138 3.33366 10.0013C3.33366 10.1912 3.42868 10.3687 3.58675 10.4741L4.28011 10.9364C5.12959 11.5028 5.53992 12.5359 5.31038 13.5308L5.17855 14.1012C5.13195 14.3034 5.19296 14.5152 5.33968 14.6619C5.4864 14.8087 5.69823 14.8696 5.90039 14.8231L6.47087 14.6912L6.65804 14.6554C7.59334 14.5146 8.53432 14.9253 9.06527 15.7215L9.52751 16.4149C9.63288 16.5729 9.81039 16.668 10.0003 16.668C10.1903 16.668 10.3678 16.5729 10.4731 16.4149L10.9354 15.7215C11.5018 14.8721 12.5348 14.4617 13.5298 14.6912L14.1003 14.8231C14.3024 14.8697 14.5142 14.8087 14.661 14.6619C14.8077 14.5152 14.8687 14.3034 14.8221 14.1012L14.6903 13.5308C14.4607 12.5358 14.8712 11.5028 15.7205 10.9364L16.4139 10.4741C16.5719 10.3687 16.667 10.1912 16.667 10.0013ZM18.3337 10.0013C18.3337 10.7485 17.96 11.4464 17.3384 11.8608L16.645 12.3231C16.3724 12.505 16.2411 12.8364 16.3146 13.1556L16.4456 13.7261C16.6215 14.4882 16.3924 15.2873 15.8394 15.8403C15.2863 16.3934 14.4872 16.6225 13.7251 16.4466L13.1546 16.3156C12.8354 16.2421 12.504 16.3734 12.3221 16.646L11.8599 17.3394C11.4454 17.961 10.7476 18.3346 10.0003 18.3346C9.2531 18.3346 8.55525 17.961 8.14079 17.3394L7.67855 16.646C7.4966 16.3733 7.16459 16.2411 6.84521 16.3148L6.27555 16.4466C5.51339 16.6225 4.71437 16.3934 4.1613 15.8403C3.6082 15.2872 3.37912 14.4882 3.55501 13.7261L3.68604 13.1564C3.75974 12.837 3.62833 12.505 3.35563 12.3231L2.66227 11.8608C2.04061 11.4464 1.66699 10.7485 1.66699 10.0013C1.66699 9.25406 2.04061 8.55622 2.66227 8.14176L3.35563 7.67952C3.62832 7.49761 3.75975 7.16562 3.68604 6.84619L3.55501 6.27653C3.37913 5.51437 3.6082 4.71537 4.1613 4.16227C4.71439 3.60918 5.5134 3.38011 6.27555 3.55599L6.84521 3.68701C7.16463 3.76072 7.49664 3.6293 7.67855 3.35661L8.14079 2.66325C8.55524 2.04158 9.25308 1.66797 10.0003 1.66797C10.7476 1.66797 11.4454 2.0416 11.8599 2.66325L12.3221 3.35661C12.504 3.62931 12.836 3.76072 13.1554 3.68701L13.7251 3.55599C14.4872 3.3801 15.2863 3.60918 15.8394 4.16227C16.3924 4.71534 16.6215 5.51437 16.4456 6.27653L16.3146 6.84701C16.2411 7.16625 16.3724 7.49765 16.645 7.67952L17.3384 8.14176C17.96 8.55622 18.3337 9.25407 18.3337 10.0013Z" fill="#646864"/>
<path d="M11.667 10.0013C11.667 9.08079 10.9208 8.33464 10.0003 8.33464C9.07981 8.33464 8.33366 9.08079 8.33366 10.0013C8.33366 10.9218 9.07981 11.668 10.0003 11.668C10.9208 11.668 11.667 10.9218 11.667 10.0013ZM13.3337 10.0013C13.3337 11.8423 11.8413 13.3346 10.0003 13.3346C8.15934 13.3346 6.66699 11.8423 6.66699 10.0013C6.66699 8.16031 8.15934 6.66797 10.0003 6.66797C11.8413 6.66797 13.3337 8.16031 13.3337 10.0013Z" fill="#646864"/>
</svg>
