<svg width="20" height="20" viewBox="0 0 20 20" fill="none" xmlns="http://www.w3.org/2000/svg">
<path fill-rule="evenodd" clip-rule="evenodd" d="M10.0003 1.66797C14.6027 1.66797 18.3337 5.39893 18.3337 10.0013C18.3337 14.6037 14.6027 18.3346 10.0003 18.3346C5.39795 18.3346 1.66699 14.6037 1.66699 10.0013C1.66699 5.39893 5.39795 1.66797 10.0003 1.66797ZM8.15869 12.918C8.29649 13.7102 8.48631 14.4161 8.71452 15.0029C8.95638 15.6248 9.22423 16.0714 9.47868 16.3481C9.7324 16.624 9.90962 16.668 10.0003 16.668C10.091 16.668 10.2683 16.624 10.522 16.3481C10.7764 16.0714 11.0443 15.6248 11.2861 15.0029C11.5143 14.4161 11.7042 13.7102 11.842 12.918H8.15869ZM4.00423 12.918C4.70529 14.3565 5.90885 15.5044 7.38639 16.1349C7.30652 15.9649 7.23157 15.7883 7.16097 15.6068C6.86018 14.8333 6.6254 13.9206 6.46924 12.918H4.00423ZM13.5314 12.918C13.3753 13.9206 13.1405 14.8333 12.8397 15.6068C12.769 15.7884 12.6934 15.9648 12.6134 16.1349C14.0913 15.5045 15.2953 14.3567 15.9964 12.918H13.5314ZM3.45166 8.7513C3.37483 9.15626 3.33366 9.57399 3.33366 10.0013C3.33366 10.4286 3.37483 10.8463 3.45166 11.2513H6.28939C6.2639 10.8428 6.25033 10.4253 6.25033 10.0013C6.25033 9.57731 6.2639 9.15978 6.28939 8.7513H3.45166ZM7.96012 8.7513C7.93251 9.15557 7.91699 9.57319 7.91699 10.0013C7.91699 10.4294 7.93251 10.847 7.96012 11.2513H12.0405C12.0681 10.847 12.0837 10.4294 12.0837 10.0013C12.0837 9.57319 12.0681 9.15557 12.0405 8.7513H7.96012ZM13.7113 8.7513C13.7367 9.15978 13.7503 9.57731 13.7503 10.0013C13.7503 10.4253 13.7367 10.8428 13.7113 11.2513H16.549C16.6258 10.8463 16.667 10.4286 16.667 10.0013C16.667 9.57399 16.6258 9.15626 16.549 8.7513H13.7113ZM7.38639 3.86686C5.90871 4.49732 4.70534 5.64599 4.00423 7.08464H6.46924C6.6254 6.08203 6.86018 5.1693 7.16097 4.39583C7.23166 4.21406 7.3064 4.03714 7.38639 3.86686ZM10.0003 3.33464C9.90962 3.33464 9.7324 3.37859 9.47868 3.65446C9.22423 3.93121 8.95638 4.37781 8.71452 4.99967C8.48631 5.5865 8.29649 6.29236 8.15869 7.08464H11.842C11.7042 6.29236 11.5143 5.5865 11.2861 4.99967C11.0443 4.37781 10.7764 3.93121 10.522 3.65446C10.2683 3.37859 10.091 3.33464 10.0003 3.33464ZM12.6134 3.86686C12.6935 4.03723 12.7689 4.21395 12.8397 4.39583C13.1405 5.1693 13.3753 6.08203 13.5314 7.08464H15.9964C15.2952 5.64577 14.0914 4.49726 12.6134 3.86686Z" fill="#646864"/>
</svg>
