<svg width="36" height="36" viewBox="0 0 36 36" fill="none" xmlns="http://www.w3.org/2000/svg">
<path d="M0 8C0 3.58172 3.58172 0 8 0H28C32.4183 0 36 3.58172 36 8V28C36 32.4183 32.4183 36 28 36H8C3.58172 36 0 32.4183 0 28V8Z" fill="#2F3130"/>
<rect x="2.39844" y="4.79688" width="31.2" height="26.4" rx="6" fill="#2F3130"/>
<path fill-rule="evenodd" clip-rule="evenodd" d="M16.4958 17.2425C16.91 17.2425 17.2464 17.578 17.2464 17.9922V23.9925C17.2462 24.4066 16.9099 24.7422 16.4958 24.7422H14.3961C13.9885 24.7422 13.637 24.7428 13.3493 24.7193C13.0531 24.6951 12.7583 24.6413 12.4748 24.497C12.0517 24.2813 11.707 23.9373 11.4913 23.5144C11.3468 23.2307 11.2932 22.9353 11.2689 22.639C11.2454 22.3512 11.2461 21.9998 11.2461 21.5922V17.9922C11.2461 17.5781 11.5817 17.2426 11.9958 17.2425H16.4958ZM12.7464 21.5922C12.7464 22.0245 12.7475 22.3043 12.7648 22.5168C12.7815 22.7202 12.8093 22.7962 12.8281 22.8332C12.9 22.9741 13.0151 23.0884 13.156 23.1602C13.1932 23.179 13.2693 23.2077 13.4724 23.2243C13.6848 23.2416 13.9641 23.2419 14.3961 23.2419H15.7461V18.7419H12.7464V21.5922Z" fill="white"/>
<path fill-rule="evenodd" clip-rule="evenodd" d="M23.9964 20.2422C24.4104 20.2423 24.7459 20.5779 24.7461 20.9919V21.5922C24.7461 21.9998 24.7468 22.3512 24.7232 22.639C24.699 22.9353 24.6454 23.2307 24.5009 23.5144C24.2853 23.9373 23.9412 24.2814 23.5183 24.497C23.2346 24.6415 22.9392 24.6951 22.6429 24.7193C22.3551 24.7428 22.0037 24.7422 21.5961 24.7422H19.4964C19.0823 24.7422 18.746 24.4066 18.7458 23.9925V20.9919C18.746 20.5778 19.0823 20.2422 19.4964 20.2422H23.9964ZM20.2461 23.2419H21.5961C22.0284 23.2419 22.3082 23.2417 22.5207 23.2243C22.7241 23.2077 22.8001 23.179 22.8371 23.1602C22.9778 23.0884 23.0923 22.9739 23.1641 22.8332C23.1829 22.7962 23.2116 22.7202 23.2282 22.5168C23.2435 22.33 23.2455 22.0912 23.2458 21.7425H20.2461V23.2419Z" fill="white"/>
<path fill-rule="evenodd" clip-rule="evenodd" d="M21.5961 11.2422C22.0037 11.2422 22.3551 11.2415 22.6429 11.265C22.9392 11.2893 23.2346 11.3429 23.5183 11.4874C23.9412 11.7031 24.2853 12.0478 24.5009 12.4709C24.6453 12.7544 24.699 13.0492 24.7232 13.3454C24.7468 13.6331 24.7461 13.9846 24.7461 14.3922V17.9922C24.7461 18.4063 24.4105 18.7417 23.9964 18.7419H19.4964C19.0822 18.7419 18.7458 18.4064 18.7458 17.9922V11.9919C18.746 11.5778 19.0823 11.2422 19.4964 11.2422H21.5961ZM20.2461 17.2425H23.2458V14.3922C23.2458 13.9602 23.2455 13.6809 23.2282 13.4685C23.2116 13.2654 23.183 13.1892 23.1641 13.1521C23.0923 13.0112 22.978 12.8961 22.8371 12.8242C22.8001 12.8054 22.7241 12.7776 22.5207 12.7609C22.3082 12.7436 22.0284 12.7425 21.5961 12.7425H20.2461V17.2425Z" fill="white"/>
<path fill-rule="evenodd" clip-rule="evenodd" d="M16.4958 11.2422C16.9099 11.2422 17.2462 11.5778 17.2464 11.9919V14.9925C17.2462 15.4066 16.9099 15.7422 16.4958 15.7422H11.9958C11.5818 15.742 11.2463 15.4065 11.2461 14.9925V14.3922C11.2461 13.9846 11.2454 13.6331 11.2689 13.3454C11.2932 13.0492 11.3469 12.7544 11.4913 12.4709C11.707 12.0477 12.0516 11.7031 12.4748 11.4874C12.7583 11.343 13.0531 11.2893 13.3493 11.265C13.637 11.2415 13.9885 11.2422 14.3961 11.2422H16.4958ZM14.3961 12.7425C13.964 12.7425 13.6848 12.7436 13.4724 12.7609C13.2693 12.7775 13.1932 12.8053 13.156 12.8242C13.015 12.8961 12.9 13.0111 12.8281 13.1521C12.8092 13.1893 12.7814 13.2654 12.7648 13.4685C12.7496 13.6552 12.7476 13.8935 12.7473 14.2419H15.7461V12.7425H14.3961Z" fill="white"/>
</svg>
