<svg width="30" height="30" viewBox="0 0 30 30" fill="none" xmlns="http://www.w3.org/2000/svg">
<path fill-rule="evenodd" clip-rule="evenodd" d="M0 6C0 2.68629 2.68629 0 6 0H24C27.3137 0 30 2.68629 30 6V24C30 27.3137 27.3137 30 24 30H6C2.68629 30 0 27.3137 0 24V6Z" fill="#2F3130"/>
<path d="M6.34766 12.6924C7.30343 12.6924 8.07894 13.4671 8.0791 14.4229C8.0791 15.3787 7.30353 16.1543 6.34766 16.1543C5.39192 16.1541 4.61719 15.3786 4.61719 14.4229C4.61735 13.4672 5.39202 12.6925 6.34766 12.6924ZM23.6553 12.6924C24.6111 12.6924 25.3866 13.4671 25.3867 14.4229C25.3867 15.3787 24.6112 16.1543 23.6553 16.1543C22.6996 16.1541 21.9248 15.3786 21.9248 14.4229C21.925 13.4672 22.6997 12.6926 23.6553 12.6924Z" fill="white"/>
<path d="M20.4348 22.1628C20.8275 22.472 20.877 23.0534 20.4985 23.3799C19.903 23.8934 19.2261 24.3218 18.4898 24.6492C17.4639 25.1053 16.3458 25.355 15.2088 25.3821C14.0718 25.4092 12.9414 25.2129 11.8917 24.8062C11.1363 24.5136 10.4349 24.1167 9.81068 23.6304C9.41763 23.3242 9.43726 22.7429 9.81258 22.4152C10.1506 22.1201 10.6558 22.1412 11.0132 22.4126C11.4848 22.7708 12.011 23.0644 12.576 23.2833C13.3947 23.6005 14.2764 23.7536 15.1633 23.7325C16.0501 23.7114 16.9222 23.5166 17.7224 23.1608C18.2724 22.9163 18.7799 22.5994 19.2299 22.2212C19.5749 21.9311 20.0806 21.8839 20.4348 22.1628Z" fill="white"/>
</svg>
