<svg width="29" height="29" viewBox="0 0 29 29" fill="none" xmlns="http://www.w3.org/2000/svg">
<g clip-path="url(#clip0_1194_119260)">
<path d="M3.91397 25.2264C4.72353 25.2109 5.566 25.2225 6.37795 25.2227L23.128 25.2202C23.0453 25.7603 22.9353 26.0056 22.5628 26.4088C22.2883 26.6717 21.949 26.9007 21.5649 26.9332C21.0943 26.9733 20.5812 26.9549 20.1087 26.9547L18.6367 26.9633L6.66121 26.966C6.22041 26.9663 5.62657 27.0048 5.20483 26.9376C4.30975 26.795 3.90394 26.0414 3.91397 25.2264Z" fill="#2F3130"/>
<path fill-rule="evenodd" clip-rule="evenodd" d="M4.0674 11.99C5.03511 11.9529 6.18218 11.9823 7.17008 11.9823L19.5433 11.9834C20.6548 11.9844 21.768 11.9876 22.8795 11.9892C23.8812 11.9908 23.8594 12.7053 23.828 13.4839C24.5178 13.4944 25.2145 13.4839 25.9057 13.4854C26.5151 13.4867 27.071 13.4972 27.4176 14.1069C27.7053 14.6132 27.6077 15.2716 27.4583 15.8124C26.9582 17.6224 25.8034 19.2054 24.3599 20.3859C24.03 20.6556 23.5409 20.954 23.1805 21.1629C22.1569 21.7458 21.3351 21.9506 20.1803 22.0955C19.9579 22.3333 19.7679 22.6078 19.562 22.8541C19.0863 23.4227 18.3133 24.3092 17.7091 24.7206C17.3776 24.7331 17.0234 24.7309 16.6901 24.7281C14.2786 24.7085 11.8535 24.7669 9.44387 24.7261C9.37498 24.6808 9.3082 24.6325 9.24387 24.581C8.52604 24.0011 7.8648 23.3543 7.26894 22.6495C4.95987 19.9711 3.7271 16.8254 3.21283 13.3368C3.11252 12.6563 3.29274 12.0721 4.0674 11.99ZM23.4471 15.1679C23.2965 15.7408 23.1291 16.452 22.9502 17.0097C22.6156 18.0523 22.1046 19.151 21.5901 20.1205C22.02 19.9079 22.7377 19.4907 23.1065 19.197C24.3924 18.1936 25.5312 16.7905 25.8873 15.1668L23.4471 15.1679Z" fill="#2F3130"/>
<path d="M15.3596 1.76387C16.0262 1.8241 16.5151 2.43182 16.7137 3.02831C17.4038 5.09809 15.7015 6.70155 15.3281 8.61936C15.2518 9.0112 15.2153 9.44548 15.2605 9.84342C15.2739 9.96323 15.3685 10.3675 15.3302 10.4449L15.2716 10.4352C13.9405 9.83875 13.653 8.3299 13.8589 7.01755C14.0883 5.55641 15.1374 4.53536 15.5074 3.14269C15.6368 2.65602 15.5466 2.21759 15.3596 1.76387Z" fill="#2F3130"/>
<path d="M12.6299 0.394043C12.6826 0.400399 12.7349 0.409811 12.7865 0.422134C13.1697 0.5162 13.5446 0.857167 13.7437 1.19203C14.2242 1.97479 14.1872 3.23944 13.8498 4.06816C13.2805 5.46604 12.3581 6.77467 12.4715 8.36546C12.4814 8.50476 12.5949 8.96435 12.5709 9.05968L12.5177 9.05451C11.1212 8.51426 10.8753 6.7639 11.1386 5.47206C11.4571 3.90952 12.8205 2.75637 12.7972 1.12791C12.7934 0.863805 12.6943 0.656561 12.6345 0.41286L12.6299 0.394043Z" fill="#2F3130"/>
</g>
<defs>
<clipPath id="clip0_1194_119260">
<rect width="28.8006" height="28.8" fill="white"/>
</clipPath>
</defs>
</svg>
