<svg width="30" height="30" viewBox="0 0 30 30" fill="none" xmlns="http://www.w3.org/2000/svg">
<g clip-path="url(#clip0_1194_103841)">
<path fill-rule="evenodd" clip-rule="evenodd" d="M0 6C0 2.68629 2.68629 0 6 0H24C27.3137 0 30 2.68629 30 6V24C30 27.3137 27.3137 30 24 30H6C2.68629 30 0 27.3137 0 24V6Z" fill="#2F3130"/>
<path d="M20.765 20C20.765 21.2241 20.1572 22.398 19.0753 23.2636C17.9933 24.1291 16.5259 24.6154 14.9958 24.6154C13.4657 24.6154 11.9983 24.1291 10.9163 23.2636C9.83439 22.398 9.22656 21.2241 9.22656 20L20.765 20Z" fill="white"/>
<path d="M5 13.5577C5 13.2546 5.05969 12.9546 5.17566 12.6746C5.29164 12.3946 5.46162 12.1402 5.67591 11.9259C5.8902 11.7116 6.14459 11.5416 6.42458 11.4257C6.70456 11.3097 7.00464 11.25 7.30769 11.25C7.61074 11.25 7.91083 11.3097 8.19081 11.4257C8.47079 11.5416 8.72519 11.7116 8.93948 11.9259C9.15377 12.1402 9.32375 12.3946 9.43972 12.6746C9.5557 12.9546 9.61539 13.2546 9.61539 13.5577L5 13.5577Z" fill="white"/>
<path d="M21.1538 13.5577C21.1538 13.2546 21.2135 12.9546 21.3295 12.6746C21.4455 12.3946 21.6155 12.1402 21.8298 11.9259C22.044 11.7116 22.2984 11.5416 22.5784 11.4257C22.8584 11.3097 23.1585 11.25 23.4615 11.25C23.7646 11.25 24.0647 11.3097 24.3447 11.4257C24.6246 11.5416 24.879 11.7116 25.0933 11.9259C25.3076 12.1402 25.4776 12.3946 25.5936 12.6746C25.7095 12.9546 25.7692 13.2546 25.7692 13.5577L21.1538 13.5577Z" fill="white"/>
</g>
<defs>
<clipPath id="clip0_1194_103841">
<path d="M0 4C0 1.79086 1.79086 0 4 0H26C28.2091 0 30 1.79086 30 4V26C30 28.2091 28.2091 30 26 30H4C1.79086 30 0 28.2091 0 26V4Z" fill="white"/>
</clipPath>
</defs>
</svg>
