<svg width="36" height="36" viewBox="0 0 36 36" fill="none" xmlns="http://www.w3.org/2000/svg">
<path d="M0 8C0 3.58172 3.58172 0 8 0H28C32.4183 0 36 3.58172 36 8V28C36 32.4183 32.4183 36 28 36H8C3.58172 36 0 32.4183 0 28V8Z" fill="#2F3130"/>
<rect x="2.39844" y="4.79688" width="31.2" height="26.4" rx="6" fill="#2F3130"/>
<path d="M20.1101 21.1172C20.3922 21.1172 20.6171 21.362 20.5362 21.6324C20.2101 22.7224 19.1962 23.5172 17.9955 23.5172C16.7948 23.5172 15.7808 22.7224 15.4547 21.6324C15.3738 21.362 15.5987 21.1172 15.8809 21.1172H20.1101Z" fill="white"/>
<path d="M7.19922 15.4727C7.19922 13.8158 8.54236 12.4727 10.1992 12.4727C11.8561 12.4727 13.1992 13.8158 13.1992 15.4727V16.0727C13.1992 16.7354 12.662 17.2727 11.9992 17.2727H8.39922C7.73648 17.2727 7.19922 16.7354 7.19922 16.0727V15.4727Z" fill="white"/>
<path d="M22.7969 15.4727C22.7969 13.8158 24.14 12.4727 25.7969 12.4727C27.4537 12.4727 28.7969 13.8158 28.7969 15.4727V16.0727C28.7969 16.7354 28.2596 17.2727 27.5969 17.2727H23.9969C23.3341 17.2727 22.7969 16.7354 22.7969 16.0727V15.4727Z" fill="white"/>
</svg>
