<svg width="30" height="34" viewBox="0 0 30 34" fill="none" xmlns="http://www.w3.org/2000/svg">
<path fill-rule="evenodd" clip-rule="evenodd" d="M0 5.99999C0 2.68629 2.68629 0 6 0H24C27.3137 0 30 2.68629 30 6V24.6429C30 27.9566 27.3137 30.6429 24 30.6429H6C2.68629 30.6429 0 27.9566 0 24.6429V5.99999Z" fill="#2F3130"/>
<path d="M6.34766 12.9644C7.30343 12.9644 8.07894 13.7391 8.0791 14.6948V14.769C8.0791 15.7249 7.30353 16.5005 6.34766 16.5005C5.39192 16.5003 4.61719 15.7248 4.61719 14.769V14.6948C4.61735 13.7392 5.39202 12.9645 6.34766 12.9644ZM23.6553 12.9644C24.6111 12.9644 25.3866 13.7391 25.3867 14.6948V14.769C25.3867 15.7249 24.6112 16.5005 23.6553 16.5005C22.6996 16.5003 21.9248 15.7248 21.9248 14.769V14.6948C21.925 13.7392 22.6997 12.9646 23.6553 12.9644Z" fill="white"/>
<path d="M21.043 24.998C22.2851 24.4272 23.7011 25.3342 23.7012 26.7012V31.0508C23.7011 32.4178 22.2851 33.3248 21.043 32.7539L18.1582 31.4287C17.6575 31.1985 17.2918 30.7646 17.1416 30.252C16.8121 30.7902 16.2212 31.1513 15.5439 31.1514H14.4541C13.7766 31.1514 13.1849 30.7904 12.8555 30.252C12.7052 30.7645 12.3405 31.1986 11.8398 31.4287L8.95508 32.7539C7.71295 33.3248 6.29693 32.4178 6.29688 31.0508V26.7012C6.29693 25.3341 7.71295 24.4271 8.95508 24.998L11.8398 26.3232C12.3402 26.5533 12.7051 26.9869 12.8555 27.499C13.185 26.961 13.7769 26.6006 14.4541 26.6006H15.5439C16.2209 26.6007 16.8121 26.9612 17.1416 27.499C17.292 26.9868 17.6577 26.5533 18.1582 26.3232L21.043 24.998Z" fill="#545299" stroke="white" stroke-width="1.25"/>
</svg>
