<svg width="36" height="36" viewBox="0 0 36 36" fill="none" xmlns="http://www.w3.org/2000/svg">
<path d="M0 8C0 3.58172 3.58172 0 8 0H28C32.4183 0 36 3.58172 36 8V28C36 32.4183 32.4183 36 28 36H8C3.58172 36 0 32.4183 0 28V8Z" fill="#2F3130"/>
<rect x="2.39844" y="3.60156" width="31.2" height="26.4" rx="6" fill="#2F3130"/>
<path d="M20.1101 19.9219C20.3922 19.9219 20.6171 20.1667 20.5362 20.437C20.2101 21.5271 19.1962 22.3219 17.9955 22.3219C16.7948 22.3219 15.7808 21.5271 15.4547 20.437C15.3738 20.1667 15.5987 19.9219 15.8809 19.9219H20.1101Z" fill="white"/>
<path d="M7.19922 14.2773C7.19922 12.6205 8.54236 11.2773 10.1992 11.2773V11.2773C11.8561 11.2773 13.1992 12.6205 13.1992 14.2773V15.2773C13.1992 15.7192 12.841 16.0773 12.3992 16.0773H7.99922C7.55739 16.0773 7.19922 15.7192 7.19922 15.2773V14.2773Z" fill="white"/>
<path d="M22.7969 14.2773C22.7969 12.6205 24.14 11.2773 25.7969 11.2773V11.2773C27.4537 11.2773 28.7969 12.6205 28.7969 14.2773V15.2773C28.7969 15.7192 28.4387 16.0773 27.9969 16.0773H23.5969C23.155 16.0773 22.7969 15.7192 22.7969 15.2773V14.2773Z" fill="white"/>
<path d="M23.0811 26.2979C24.4059 25.6889 25.9157 26.6563 25.916 28.1143V31.9424C25.9159 33.4004 24.4059 34.3685 23.0811 33.7598L20.542 32.5928C20.1961 32.4337 19.9116 32.183 19.71 31.8779C19.3573 32.1895 18.8953 32.3809 18.3877 32.3809H17.4287C16.9211 32.3808 16.4591 32.1896 16.1064 31.8779C15.9048 32.1829 15.6203 32.4338 15.2744 32.5928L12.7363 33.7598C11.4114 34.3687 9.90052 33.4005 9.90039 31.9424V28.1143C9.90068 26.6563 11.4115 25.6889 12.7363 26.2979L15.2744 27.4639C15.6203 27.6228 15.9048 27.8738 16.1064 28.1787C16.4591 27.8671 16.9212 27.6768 17.4287 27.6768H18.3877C18.8952 27.6768 19.3573 27.8672 19.71 28.1787C19.9116 27.8737 20.1962 27.6229 20.542 27.4639L23.0811 26.2979Z" fill="white" stroke="#2F3130" stroke-width="1.8"/>
</svg>
