<svg width="30" height="31" viewBox="0 0 30 31" fill="none" xmlns="http://www.w3.org/2000/svg">
<path fill-rule="evenodd" clip-rule="evenodd" d="M0 5C0 2.23857 2.23858 0 5 0H25C27.7614 0 30 2.23858 30 5V25.6429C30 28.4043 27.7614 30.6429 25 30.6429H5C2.23858 30.6429 0 28.4043 0 25.6429V5Z" fill="#406CC4"/>
<path fill-rule="evenodd" clip-rule="evenodd" d="M0 5C0 2.23857 2.23858 0 5 0H25C27.7614 0 30 2.23858 30 5V25.6429C30 28.4043 27.7614 30.6429 25 30.6429H5C2.23858 30.6429 0 28.4043 0 25.6429V5Z" fill="url(#paint0_linear_1194_103860)"/>
<path d="M6.34766 12.9644C7.30343 12.9644 8.07894 13.7391 8.0791 14.6948V14.769C8.0791 15.7249 7.30353 16.5005 6.34766 16.5005C5.39192 16.5003 4.61719 15.7248 4.61719 14.769V14.6948C4.61735 13.7392 5.39202 12.9645 6.34766 12.9644ZM23.6553 12.9644C24.6111 12.9644 25.3866 13.7391 25.3867 14.6948V14.769C25.3867 15.7249 24.6112 16.5005 23.6553 16.5005C22.6996 16.5003 21.9248 15.7248 21.9248 14.769V14.6948C21.925 13.7392 22.6997 12.9646 23.6553 12.9644Z" fill="white"/>
<defs>
<linearGradient id="paint0_linear_1194_103860" x1="0" y1="0" x2="40.373" y2="65.1491" gradientUnits="userSpaceOnUse">
<stop stop-color="#8C31FF"/>
<stop offset="1" stop-color="#FF9F31"/>
</linearGradient>
</defs>
</svg>
