<svg width="16" height="16" viewBox="0 0 16 16" fill="none" xmlns="http://www.w3.org/2000/svg">
<path d="M10.9953 4.06221C11.2556 3.80186 11.6779 3.80186 11.9382 4.06221C12.1984 4.32252 12.1984 4.74408 11.9382 5.00439L8.94214 7.99971L11.9382 10.995C12.1986 11.2554 12.1986 11.6776 11.9382 11.938C11.6779 12.1983 11.2556 12.1983 10.9953 11.938L7.99995 8.94189L5.00464 11.938C4.74432 12.1982 4.32277 12.1982 4.06245 11.938C3.8021 11.6776 3.8021 11.2554 4.06245 10.995L7.05698 7.99971L4.06245 5.00439C3.8021 4.74404 3.8021 4.32256 4.06245 4.06221C4.3228 3.80186 4.74429 3.80186 5.00464 4.06221L7.99995 7.05674L10.9953 4.06221Z" fill="#646864"/>
</svg>
