<svg width="32" height="32" viewBox="0 0 32 32" fill="none" xmlns="http://www.w3.org/2000/svg">
<path d="M16 0C24.8366 0 32 7.16344 32 16C32 24.8366 24.8366 32 16 32C7.16344 32 0 24.8366 0 16C0 7.16344 7.16344 0 16 0Z" fill="#3DDC84"/>
<path d="M19.688 16.7255C19.5106 16.7255 19.3404 16.655 19.215 16.5297C19.0896 16.4043 19.0192 16.2344 19.0193 16.0573C19.0194 15.8801 19.09 15.7102 19.2155 15.585C19.341 15.4598 19.5112 15.3895 19.6887 15.3896C19.8661 15.3896 20.0363 15.46 20.1617 15.5853C20.2872 15.7105 20.3577 15.8804 20.3577 16.0576C20.3577 16.2347 20.2872 16.4046 20.1617 16.5299C20.0363 16.6552 19.8661 16.7255 19.6887 16.7255H19.688ZM12.3253 16.7255C12.2375 16.7255 12.1505 16.7082 12.0693 16.6746C11.9882 16.641 11.9145 16.5917 11.8524 16.5297C11.727 16.4043 11.6566 16.2344 11.6567 16.0573C11.6568 15.8801 11.7273 15.7102 11.8528 15.585C11.9784 15.4598 12.1486 15.3895 12.326 15.3896C12.5034 15.3896 12.6736 15.46 12.7991 15.5853C12.9245 15.7105 12.995 15.8804 12.995 16.0576C12.995 16.2347 12.9245 16.4046 12.7991 16.5299C12.6736 16.6552 12.5034 16.7255 12.326 16.7255H12.3253ZM19.9253 12.7198L21.2627 10.4174C21.2986 10.3537 21.3078 10.2784 21.2882 10.208C21.2686 10.1376 21.2217 10.0779 21.158 10.042C21.0943 10.006 21.0188 9.99686 20.9483 10.0165C20.8778 10.0361 20.818 10.0828 20.782 10.1465L19.4307 12.4762C18.3575 11.9864 17.1907 11.7348 16.0107 11.7386C14.7773 11.7386 13.614 12.0036 12.5833 12.4695L11.232 10.1398C11.2142 10.1083 11.1903 10.0807 11.1618 10.0584C11.1333 10.0362 11.1007 10.0197 11.0658 10.01C11.0309 10.0004 10.9944 9.99765 10.9585 10.002C10.9226 10.0064 10.8879 10.0178 10.8563 10.0356C10.8248 10.0534 10.7971 10.0772 10.7748 10.1057C10.7525 10.1342 10.7361 10.1668 10.7264 10.2016C10.7167 10.2364 10.714 10.2728 10.7184 10.3087C10.7228 10.3446 10.7342 10.3792 10.752 10.4107L12.082 12.7125C9.79733 13.9572 8.23 16.2669 8 19H24C23.7773 16.2736 22.2167 13.9645 19.9253 12.7198Z" fill="white"/>
</svg>
