<svg width="20" height="20" viewBox="0 0 20 20" fill="none" xmlns="http://www.w3.org/2000/svg">
<path d="M10 0C15.5228 0 20 4.47715 20 10C20 15.5228 15.5228 20 10 20C4.47715 20 0 15.5228 0 10C0 4.47715 4.47715 0 10 0Z" fill="#5C6970"/>
<path d="M10.9375 12.1875L12.8125 14.0625V12.1875H10.9375ZM7.65625 6.5625C6.36183 6.5625 5.3125 7.61183 5.3125 8.90625C5.3125 10.2007 6.36183 11.25 7.65625 11.25H12.3438C13.6382 11.25 14.6875 10.2007 14.6875 8.90625C14.6875 7.61183 13.6382 6.5625 12.3438 6.5625H7.65625Z" fill="white"/>
</svg>
