<svg width="32" height="32" viewBox="0 0 32 32" fill="none" xmlns="http://www.w3.org/2000/svg">
<path d="M16 0C24.8366 0 32 7.16344 32 16C32 24.8366 24.8366 32 16 32C7.16344 32 0 24.8366 0 16C0 7.16344 7.16344 0 16 0Z" fill="black"/>
<path d="M19.6019 15.2917C19.6019 14.0366 20.345 12.9529 21.4252 12.4256C20.4609 11.5476 19.2219 11.5 19.0018 11.5C18.4166 11.5 17.999 11.6541 17.5955 11.8031C17.2046 11.9475 16.8354 12.0836 16.3012 12.0836C15.767 12.0836 15.3978 11.9475 15.0069 11.8031C14.6034 11.6541 14.1859 11.5 13.6007 11.5C13.2321 11.5 10 11.6145 10 15.5836C10 18.8293 12.2783 22 13.6007 22C14.4103 22 14.876 21.816 15.2871 21.6536C15.6082 21.5269 15.886 21.4172 16.3012 21.4172C16.7165 21.4172 16.9942 21.5269 17.3154 21.6539C17.7265 21.816 18.1921 22 19.0015 22C19.9279 22 21.2473 20.4419 22 18.394C20.579 18.0361 19.6019 16.7848 19.6019 15.2917ZM19.0016 8C17.2438 8.34999 15.9838 9.75869 16.0014 11.5C17.7592 11.15 19.0191 9.74131 19.0016 8Z" fill="url(#paint0_linear_1325_55838)"/>
<defs>
<linearGradient id="paint0_linear_1325_55838" x1="10.84" y1="12.5745" x2="22.2232" y2="18.0343" gradientUnits="userSpaceOnUse">
<stop stop-color="white" stop-opacity="0.81"/>
<stop offset="1" stop-color="white"/>
</linearGradient>
</defs>
</svg>
