<svg width="24" height="24" viewBox="0 0 24 24" fill="none" xmlns="http://www.w3.org/2000/svg">
<path d="M0 12C0 5.37258 5.37258 0 12 0C18.6274 0 24 5.37258 24 12C24 18.6274 18.6274 24 12 24C5.37258 24 0 18.6274 0 12Z" fill="#646864"/>
<path d="M12 7C10.7574 7 9.75 8.00736 9.75 9.25C9.75 10.4926 10.7574 11.5 12 11.5C13.2426 11.5 14.25 10.4926 14.25 9.25C14.25 8.00736 13.2426 7 12 7Z" fill="white"/>
<path d="M12.0007 12C10.0848 12 8.61843 13.1481 8.02302 14.758C7.85281 15.2183 7.96934 15.6719 8.23992 15.9944C8.50361 16.3086 8.91066 16.5 9.34916 16.5H14.6523C15.0908 16.5 15.4978 16.3086 15.7615 15.9944C16.0321 15.6719 16.1486 15.2183 15.9784 14.758C15.383 13.1481 13.9167 12 12.0007 12Z" fill="white"/>
</svg>
