<svg width="24" height="24" viewBox="0 0 24 24" fill="none" xmlns="http://www.w3.org/2000/svg">
<path d="M0 12C0 5.37258 5.37258 0 12 0C18.6274 0 24 5.37258 24 12C24 18.6274 18.6274 24 12 24C5.37258 24 0 18.6274 0 12Z" fill="#8D59B1"/>
<path d="M8.77681 6.76874C8.74406 6.66712 8.65236 6.60156 8.54756 6.60156C8.44276 6.60156 8.35106 6.6704 8.31832 6.76874L8.12182 7.38171C8.02684 7.65706 7.80415 7.87996 7.52905 7.97174L6.91336 8.17825C6.81511 8.21103 6.74961 8.30281 6.74961 8.40771C6.74961 8.50932 6.81838 8.60111 6.91663 8.63389C6.97975 8.65679 7.05826 8.68026 7.14375 8.70581C7.41309 8.78633 7.75166 8.88755 7.89585 9.05674C8.06465 9.19877 8.16218 9.52737 8.24168 9.79522C8.2686 9.88593 8.29346 9.96968 8.31831 10.0368C8.38054 10.2565 8.71459 10.2565 8.77681 10.0368L8.97003 9.42059C9.06173 9.14852 9.28443 8.92562 9.55953 8.83384L10.185 8.63389C10.4045 8.57161 10.4045 8.23726 10.185 8.17497L9.56935 7.98158C9.10877 7.84865 8.96512 7.37897 8.83762 6.96205C8.81735 6.89576 8.79747 6.83079 8.77681 6.76874Z" fill="white"/>
<path fill-rule="evenodd" clip-rule="evenodd" d="M11.2496 7.69247C11.2496 7.42135 11.4694 7.20156 11.7405 7.20156H12.2587C12.5298 7.20156 12.7496 7.42135 12.7496 7.69247V8.40156H15.5178C16.06 8.40156 16.4996 8.84114 16.4996 9.38338V10.2016C16.6178 10.2016 16.7348 10.2248 16.844 10.2701C16.9532 10.3153 17.0524 10.3816 17.136 10.4652C17.2196 10.5487 17.2859 10.648 17.3311 10.7571C17.3763 10.8663 17.3996 10.9834 17.3996 11.1016C17.3996 11.2198 17.3763 11.3368 17.3311 11.446C17.2859 11.5552 17.2196 11.6544 17.136 11.738C17.0524 11.8215 16.9532 11.8878 16.844 11.9331C16.7348 11.9783 16.6178 12.0016 16.4996 12.0016V15.8197C16.4996 16.362 16.06 16.8016 15.5178 16.8016H8.48143C7.93918 16.8016 7.49961 16.362 7.49961 15.8197L7.49961 12.0016C7.38142 12.0016 7.26439 11.9783 7.15519 11.9331C7.046 11.8878 6.94679 11.8215 6.86321 11.738C6.77964 11.6544 6.71335 11.5552 6.66812 11.446C6.62289 11.3368 6.59961 11.2198 6.59961 11.1016C6.59961 10.9834 6.62289 10.8663 6.66812 10.7571C6.71335 10.648 6.77964 10.5487 6.86321 10.4652C6.94679 10.3816 7.046 10.3153 7.15519 10.2701C7.24144 10.2343 7.33257 10.2123 7.4253 10.2046C7.43758 10.2436 7.45078 10.2837 7.46456 10.3225C7.64049 10.871 8.14582 11.1016 8.54756 11.1016C8.95525 11.1016 9.46961 10.8641 9.63815 10.2979L9.82333 9.70732L9.82419 9.70587C9.82574 9.7034 9.82814 9.70025 9.8314 9.697C9.83722 9.6912 9.8421 9.68863 9.84376 9.68785L10.4494 9.49424C11.014 9.32438 11.2496 8.81041 11.2496 8.40443V7.69247ZM10.0496 12.9016C10.4638 12.9016 10.7996 12.5658 10.7996 12.1516C10.7996 11.7373 10.4638 11.4016 10.0496 11.4016C9.6354 11.4016 9.29961 11.7373 9.29961 12.1516C9.29961 12.5658 9.6354 12.9016 10.0496 12.9016ZM14.6996 12.1516C14.6996 12.5658 14.3638 12.9016 13.9496 12.9016C13.5354 12.9016 13.1996 12.5658 13.1996 12.1516C13.1996 11.7373 13.5354 11.4016 13.9496 11.4016C14.3638 11.4016 14.6996 11.7373 14.6996 12.1516ZM13.4996 14.1016H10.4996V15.0016H13.4996V14.1016Z" fill="white"/>
</svg>
