<svg width="40" height="40" viewBox="0 0 40 40" fill="none" xmlns="http://www.w3.org/2000/svg">
<rect x="0.5" y="0.5" width="39" height="39" rx="7.5" fill="#F7F7F7"/>
<rect x="0.5" y="0.5" width="39" height="39" rx="7.5" stroke="#EAE9E8"/>
<g clip-path="url(#clip0_1553_28775)">
<path d="M11.2616 29.0217C11.9363 29.0088 12.6383 29.0185 13.315 29.0187L27.2733 29.0166C27.2044 29.4667 27.1127 29.6711 26.8023 30.0071C26.5736 30.2262 26.2909 30.417 25.9708 30.4441C25.5786 30.4775 25.151 30.4622 24.7572 30.462L23.5306 30.4692L13.551 30.4714C13.1837 30.4716 12.6888 30.5038 12.3374 30.4478C11.5915 30.3289 11.2533 29.701 11.2616 29.0217Z" fill="black"/>
<path fill-rule="evenodd" clip-rule="evenodd" d="M11.3895 17.9914C12.1959 17.9605 13.1518 17.985 13.9751 17.985L24.2861 17.9859C25.2124 17.9867 26.14 17.9894 27.0663 17.9908C27.901 17.9921 27.8828 18.5875 27.8566 19.2364C28.4315 19.2451 29.0121 19.2363 29.588 19.2376C30.0959 19.2387 30.5592 19.2474 30.848 19.7555C31.0877 20.1774 31.0064 20.7261 30.8819 21.1767C30.4652 22.6851 29.5028 24.0043 28.2999 24.988C28.025 25.2127 27.6174 25.4614 27.3171 25.6355C26.4641 26.1213 25.7792 26.2919 24.8169 26.4127C24.6316 26.6108 24.4733 26.8396 24.3017 27.0448C23.9053 27.5186 23.2611 28.2574 22.7576 28.6003C22.4814 28.6107 22.1861 28.6088 21.9084 28.6065C19.8988 28.5902 17.8779 28.6388 15.8699 28.6049C15.8125 28.5671 15.7568 28.5268 15.7032 28.4839C15.105 28.0006 14.554 27.4617 14.0574 26.8743C12.1332 24.6423 11.1059 22.0209 10.6774 19.1138C10.5938 18.5467 10.7439 18.0598 11.3895 17.9914ZM27.5393 20.6397C27.4138 21.1171 27.2742 21.7098 27.1252 22.1745C26.8463 23.0433 26.4205 23.9589 25.9918 24.7668C26.35 24.5897 26.9481 24.242 27.2554 23.9973C28.327 23.1611 29.276 21.9919 29.5728 20.6388L27.5393 20.6397Z" fill="black"/>
<path d="M20.7996 9.46964C21.3552 9.51984 21.7626 10.0263 21.9281 10.5233C22.5032 12.2482 21.0846 13.5844 20.7734 15.1826C20.7098 15.5091 20.6795 15.871 20.717 16.2026C20.7283 16.3024 20.8071 16.6393 20.7752 16.7038L20.7263 16.6957C19.617 16.1987 19.3775 14.9413 19.5491 13.8477C19.7403 12.6301 20.6145 11.7792 20.9229 10.6187C21.0307 10.2131 20.9555 9.84775 20.7996 9.46964Z" fill="black"/>
<path d="M18.525 8.32812C18.5689 8.33342 18.6124 8.34127 18.6554 8.35153C18.9748 8.42992 19.2872 8.71406 19.4531 8.99311C19.8535 9.64541 19.8227 10.6993 19.5415 11.3899C19.0671 12.5548 18.2984 13.6453 18.3929 14.971C18.4012 15.0871 18.4958 15.47 18.4758 15.5495L18.4314 15.5452C17.2677 15.095 17.0628 13.6363 17.2822 12.5598C17.5476 11.2577 18.6838 10.2967 18.6643 8.93968C18.6612 8.71959 18.5786 8.54689 18.5287 8.34381L18.525 8.32812Z" fill="black"/>
</g>
<defs>
<clipPath id="clip0_1553_28775">
<rect width="24.0005" height="24" fill="white" transform="translate(8 8)"/>
</clipPath>
</defs>
</svg>
