<svg width="12" height="12" viewBox="0 0 12 12" fill="none" xmlns="http://www.w3.org/2000/svg">
<path d="M10 8.5C10 8.22386 10.2239 8 10.5 8C10.7761 8 11 8.22386 11 8.5V10C11 10.5761 10.5761 11 10 11H2C1.42386 11 1 10.5761 1 10V2C1 1.42386 1.42386 1 2 1H3.5C3.77614 1 4 1.22386 4 1.5C4 1.77614 3.77614 2 3.5 2H2V10H10V8.5Z" fill="#1F73B7"/>
<path d="M10 2.70711L6.35355 6.35355C6.15829 6.54882 5.84171 6.54882 5.64645 6.35355C5.45118 6.15829 5.45118 5.84171 5.64645 5.64645L9.29289 2H6.5C6.22386 2 6 1.77614 6 1.5C6 1.22386 6.22386 1 6.5 1H10C10.5761 1 11 1.42386 11 2V5.5C11 5.77614 10.7761 6 10.5 6C10.2239 6 10 5.77614 10 5.5V2.70711Z" fill="#1F73B7"/>
</svg>
