<svg width="320" height="160" viewBox="0 0 320 160" fill="none" xmlns="http://www.w3.org/2000/svg">
<g clip-path="url(#clip0_1325_56542)">
<rect width="320" height="160" fill="white"/>
<foreignObject x="-7.51562" y="12" width="344.785" height="592.5"><div xmlns="http://www.w3.org/1999/xhtml" style="backdrop-filter:blur(2.25px);clip-path:url(#bgblur_1_1325_56542_clip_path);height:100%;width:100%"></div></foreignObject><g filter="url(#filter0_dddd_1325_56542)" data-figma-bg-blur-radius="4.5002">
<rect x="55.4844" y="24" width="218.786" height="359.5" rx="18.0008" fill="black" fill-opacity="0.05"/>
<rect x="55.9344" y="24.45" width="217.886" height="358.6" rx="17.5508" stroke="white" stroke-width="0.90004"/>
<g clip-path="url(#clip2_1325_56542)">
<rect x="62.6855" y="31.1992" width="204.385" height="345.099" rx="10.8005" fill="url(#paint0_linear_1325_56542)"/>
<mask id="path-4-inside-1_1325_56542" fill="white">
<path d="M62.6855 31.1992H267.071V74.9751H62.6855V31.1992Z"/>
</mask>
<path d="M267.071 74.9751V74.3384H62.6855V74.9751V75.6118H267.071V74.9751Z" fill="#E8EAEC" mask="url(#path-4-inside-1_1325_56542)"/>
<g filter="url(#filter1_d_1325_56542)">
<rect x="75.2852" y="43.8008" width="20.3749" height="20.3749" rx="3.82029" fill="#16140C"/>
</g>
<path fill-rule="evenodd" clip-rule="evenodd" d="M85.1788 52.3173V56.5351H81.6523L85.1788 52.3173ZM85.1788 50.8047C85.1788 51.7646 84.3853 52.55 83.4156 52.55C82.4458 52.55 81.6523 51.7646 81.6523 50.8047H85.1788ZM85.7665 56.5351C85.7665 55.5752 86.5599 54.7898 87.5297 54.7898C88.4995 54.7898 89.2929 55.5752 89.2929 56.5351H85.7665ZM85.7665 55.0225V50.8047H89.2929L85.7665 55.0225Z" fill="#F5F5F2"/>
<rect x="103.301" y="46.8008" width="54.9024" height="5.40024" rx="2.70012" fill="#D8DCDE"/>
<rect x="103.301" y="56.1914" width="87.7709" height="4.98698" rx="2.49349" fill="#D8DCDE"/>
</g>
</g>
<rect x="94.4062" y="96" width="154.994" height="48.1913" rx="10.9802" fill="#F4F6F8"/>
<rect x="108.426" y="107.684" width="122.118" height="9.15015" rx="4.57507" fill="#D8DCDE"/>
<rect x="108.426" y="123.359" width="70.4541" height="9.15015" rx="4.57507" fill="#D8DCDE"/>
<rect x="50" y="112" width="32" height="32" rx="6" fill="#16140C"/>
<circle cx="57.0098" cy="128" r="2" fill="white"/>
<circle cx="75.0098" cy="128" r="2" fill="white"/>
</g>
<defs>
<filter id="filter0_dddd_1325_56542" x="-7.51562" y="12" width="344.785" height="592.5" filterUnits="userSpaceOnUse" color-interpolation-filters="sRGB">
<feFlood flood-opacity="0" result="BackgroundImageFix"/>
<feColorMatrix in="SourceAlpha" type="matrix" values="0 0 0 0 0 0 0 0 0 0 0 0 0 0 0 0 0 0 127 0" result="hardAlpha"/>
<feOffset dy="10"/>
<feGaussianBlur stdDeviation="11"/>
<feColorMatrix type="matrix" values="0 0 0 0 0.211765 0 0 0 0 0.184314 0 0 0 0 0.435294 0 0 0 0.18 0"/>
<feBlend mode="normal" in2="BackgroundImageFix" result="effect1_dropShadow_1325_56542"/>
<feColorMatrix in="SourceAlpha" type="matrix" values="0 0 0 0 0 0 0 0 0 0 0 0 0 0 0 0 0 0 127 0" result="hardAlpha"/>
<feOffset dy="40"/>
<feGaussianBlur stdDeviation="20"/>
<feColorMatrix type="matrix" values="0 0 0 0 0.211765 0 0 0 0 0.184314 0 0 0 0 0.435294 0 0 0 0.16 0"/>
<feBlend mode="normal" in2="effect1_dropShadow_1325_56542" result="effect2_dropShadow_1325_56542"/>
<feColorMatrix in="SourceAlpha" type="matrix" values="0 0 0 0 0 0 0 0 0 0 0 0 0 0 0 0 0 0 127 0" result="hardAlpha"/>
<feOffset dy="89"/>
<feGaussianBlur stdDeviation="26.5"/>
<feColorMatrix type="matrix" values="0 0 0 0 0.211765 0 0 0 0 0.184314 0 0 0 0 0.435294 0 0 0 0.09 0"/>
<feBlend mode="normal" in2="effect2_dropShadow_1325_56542" result="effect3_dropShadow_1325_56542"/>
<feColorMatrix in="SourceAlpha" type="matrix" values="0 0 0 0 0 0 0 0 0 0 0 0 0 0 0 0 0 0 127 0" result="hardAlpha"/>
<feOffset dy="158"/>
<feGaussianBlur stdDeviation="31.5"/>
<feColorMatrix type="matrix" values="0 0 0 0 0.211765 0 0 0 0 0.184314 0 0 0 0 0.435294 0 0 0 0.03 0"/>
<feBlend mode="normal" in2="effect3_dropShadow_1325_56542" result="effect4_dropShadow_1325_56542"/>
<feBlend mode="normal" in="SourceGraphic" in2="effect4_dropShadow_1325_56542" result="shape"/>
</filter>
<clipPath id="bgblur_1_1325_56542_clip_path" transform="translate(7.51562 -12)"><rect x="55.4844" y="24" width="218.786" height="359.5" rx="18.0008"/>
</clipPath><filter id="filter1_d_1325_56542" x="65.4645" y="39.5919" width="40.0163" height="40.0163" filterUnits="userSpaceOnUse" color-interpolation-filters="sRGB">
<feFlood flood-opacity="0" result="BackgroundImageFix"/>
<feColorMatrix in="SourceAlpha" type="matrix" values="0 0 0 0 0 0 0 0 0 0 0 0 0 0 0 0 0 0 127 0" result="hardAlpha"/>
<feOffset dy="5.61179"/>
<feGaussianBlur stdDeviation="4.91031"/>
<feColorMatrix type="matrix" values="0 0 0 0 0 0 0 0 0 0 0 0 0 0 0 0 0 0 0.08 0"/>
<feBlend mode="normal" in2="BackgroundImageFix" result="effect1_dropShadow_1325_56542"/>
<feBlend mode="normal" in="SourceGraphic" in2="effect1_dropShadow_1325_56542" result="shape"/>
</filter>
<linearGradient id="paint0_linear_1325_56542" x1="167.348" y1="268.375" x2="168.505" y2="340.755" gradientUnits="userSpaceOnUse">
<stop offset="0.184184" stop-color="white"/>
<stop offset="1" stop-color="white" stop-opacity="0"/>
</linearGradient>
<clipPath id="clip0_1325_56542">
<rect width="320" height="160" fill="white"/>
</clipPath>
<clipPath id="clip2_1325_56542">
<rect x="62.6855" y="31.1992" width="204.385" height="345.099" rx="10.8005" fill="white"/>
</clipPath>
</defs>
</svg>
