<svg width="12" height="20" viewBox="0 0 12 20" fill="none" xmlns="http://www.w3.org/2000/svg">
<path fill-rule="evenodd" clip-rule="evenodd" d="M1.99997 11C1.79812 11.001 1.61667 11.1233 1.53997 11.31C1.45619 11.4949 1.50055 11.7126 1.64997 11.85L5.29997 15.5C5.69001 15.8877 6.31993 15.8877 6.70997 15.5L10.36 11.85C10.504 11.7096 10.5476 11.4955 10.47 11.31C10.3857 11.1251 10.2031 11.0047 9.99997 11H1.99997Z" fill="#5C6970"/>
<path fill-rule="evenodd" clip-rule="evenodd" d="M9.99997 9.00173H1.99997C1.79812 9.00072 1.61667 8.87844 1.53997 8.69173C1.45619 8.50686 1.50055 8.2891 1.64997 8.15173L5.28997 4.50173C5.68001 4.11401 6.30993 4.11401 6.69997 4.50173L10.35 8.15173C10.494 8.2921 10.5376 8.50621 10.46 8.69173C10.3812 8.87671 10.201 8.99811 9.99997 9.00173V9.00173Z" fill="#5C6970" fill-opacity="0.16"/>
</svg>
