<svg width="12" height="20" viewBox="0 0 12 20" fill="none" xmlns="http://www.w3.org/2000/svg">
<path fill-rule="evenodd" clip-rule="evenodd" d="M5.95006 5.25775L2.85355 8.35425C2.65829 8.54951 2.34171 8.54951 2.14645 8.35425C1.95118 8.15899 1.95118 7.84241 2.14645 7.64715L5.24645 4.54715C5.64171 4.15188 6.25829 4.15188 6.6479 4.54158L9.8479 7.64158C10.0462 7.83372 10.0513 8.15026 9.85912 8.3486C9.66698 8.54693 9.35044 8.55196 9.1521 8.35982L5.95006 5.25775ZM9.1521 11.6416C9.35044 11.4494 9.66698 11.4545 9.85912 11.6528C10.0513 11.8511 10.0462 12.1677 9.8479 12.3598L6.65355 15.4543C6.25829 15.8495 5.64171 15.8495 5.24645 15.4543L2.14645 12.3543C1.95118 12.159 1.95118 11.8424 2.14645 11.6471C2.34171 11.4519 2.65829 11.4519 2.85355 11.6471L5.95017 14.7438L9.1521 11.6416Z" fill="#5C6970"/>
</svg>
