<svg width="16" height="16" viewBox="0 0 16 16" fill="none" xmlns="http://www.w3.org/2000/svg">
<g opacity="0.8">
<path d="M10.2445 5.04659C10.4398 4.85133 10.7565 4.85133 10.9517 5.04659C11.1469 5.24183 11.1469 5.558 10.9517 5.75323L8.70465 7.99972L10.9517 10.2462C11.147 10.4415 11.147 10.7582 10.9517 10.9534C10.7565 11.1487 10.4398 11.1487 10.2445 10.9534L7.99801 8.70636L5.75152 10.9534C5.55629 11.1486 5.24012 11.1486 5.04488 10.9534C4.84962 10.7582 4.84962 10.4415 5.04488 10.2462L7.29078 7.99972L5.04488 5.75323C4.84962 5.55797 4.84962 5.24186 5.04488 5.04659C5.24015 4.85133 5.55626 4.85133 5.75152 5.04659L7.99801 7.29249L10.2445 5.04659Z" fill="#2F3130"/>
</g>
</svg>
