<svg width="16" height="16" viewBox="0 0 16 16" fill="none" xmlns="http://www.w3.org/2000/svg">
<path d="M7.99967 1.33203C6.34282 1.33203 4.99967 2.67518 4.99967 4.33203C4.99967 5.98888 6.34282 7.33203 7.99967 7.33203C9.65654 7.33203 10.9997 5.98888 10.9997 4.33203C10.9997 2.67518 9.65654 1.33203 7.99967 1.33203Z" fill="#5C6970"/>
<path d="M8.00067 7.9987C5.44606 7.9987 3.49091 9.5295 2.69704 11.676C2.47009 12.2897 2.62547 12.8946 2.98624 13.3245C3.33782 13.7435 3.88056 13.9987 4.46522 13.9987H11.5361C12.1207 13.9987 12.6635 13.7435 13.0151 13.3245C13.3759 12.8946 13.5312 12.2897 13.3043 11.676C12.5104 9.5295 10.5553 7.9987 8.00067 7.9987Z" fill="#5C6970"/>
</svg>
