<svg width="16" height="16" viewBox="0 0 16 16" fill="none" xmlns="http://www.w3.org/2000/svg">
<path fill-rule="evenodd" clip-rule="evenodd" d="M4 1.33203C4.87057 1.33203 5.60937 1.88891 5.88411 2.66536H11C12.6569 2.66536 14 4.00851 14 5.66536C14 7.32222 12.6569 8.66536 11 8.66536H10V8.6595C9.90392 8.93436 9.74823 9.1931 9.52865 9.41276L9.41406 9.52734C8.63303 10.3083 7.36626 10.3084 6.58529 9.52734L6.47135 9.41276C6.25174 9.1931 6.09609 8.93435 6 8.6595V8.66536H5C4.07952 8.66536 3.33333 9.41155 3.33333 10.332C3.33333 11.2525 4.07952 11.9987 5 11.9987H10.1159C10.3906 11.2222 11.1294 10.6654 12 10.6654C13.1046 10.6654 14 11.5608 14 12.6654C14 13.7699 13.1046 14.6654 12 14.6654C11.1294 14.6654 10.3906 14.1085 10.1159 13.332H5C3.34314 13.332 2 11.9889 2 10.332C2 8.67517 3.34314 7.33203 5 7.33203H6V7.33724C6.09611 7.06248 6.25178 6.80357 6.47135 6.58398L6.58529 6.47005C7.36629 5.68906 8.63307 5.68906 9.41406 6.47005L9.528 6.58398C9.74756 6.80357 9.9039 7.06247 10 7.33724V7.33203H11C11.9205 7.33203 12.6667 6.58584 12.6667 5.66536C12.6667 4.74489 11.9205 3.9987 11 3.9987H5.88411C5.60937 4.77515 4.87057 5.33203 4 5.33203C2.89543 5.33203 2 4.4366 2 3.33203C2 2.22746 2.89543 1.33203 4 1.33203ZM12 11.9987C11.6318 11.9987 11.3333 12.2972 11.3333 12.6654C11.3333 13.0336 11.6318 13.332 12 13.332C12.3682 13.332 12.6667 13.0336 12.6667 12.6654C12.6667 12.2972 12.3682 11.9987 12 11.9987ZM8.47135 7.41276C8.21109 7.15256 7.78894 7.15262 7.52865 7.41276L7.41406 7.52734C7.15385 7.78771 7.15382 8.2097 7.41406 8.47005L7.52799 8.58398C7.78831 8.84433 8.21104 8.84433 8.47135 8.58398L8.58529 8.47005L8.63151 8.41927C8.84489 8.15739 8.82929 7.77139 8.58529 7.52734L8.47135 7.41276ZM4 2.66536C3.63181 2.66536 3.33333 2.96384 3.33333 3.33203C3.33333 3.70022 3.63181 3.9987 4 3.9987C4.36819 3.9987 4.66667 3.70022 4.66667 3.33203C4.66667 2.96384 4.36819 2.66536 4 2.66536Z" fill="#1F335A"/>
</svg>
