<svg width="9" height="9" viewBox="0 0 9 9" fill="none" xmlns="http://www.w3.org/2000/svg">
<path d="M7.55806 0.55757C7.80214 0.313492 8.19875 0.313492 8.44282 0.55757C8.6869 0.801648 8.6869 1.19826 8.44282 1.44234L1.44282 8.44234C1.19875 8.68641 0.802136 8.68641 0.558058 8.44234C0.313981 8.19826 0.313981 7.80165 0.558058 7.55757L7.55806 0.55757Z" fill="#646864"/>
<path d="M7.55806 4.55757C7.80214 4.31349 8.19875 4.31349 8.44282 4.55757C8.6869 4.80165 8.6869 5.19826 8.44282 5.44234L5.44282 8.44234C5.19875 8.68641 4.80214 8.68641 4.55806 8.44234C4.31398 8.19826 4.31398 7.80165 4.55806 7.55757L7.55806 4.55757Z" fill="#646864"/>
</svg>
