<svg width="20" height="20" viewBox="0 0 20 20" fill="none" xmlns="http://www.w3.org/2000/svg">
<path d="M10.1569 14.7916L2.97656 16.5103V3.4895L10.1569 5.15617V14.7916Z" fill="#E05243"/>
<path d="M9.95312 14.8437L16.9238 16.5103V3.4895L9.95312 5.15617V14.8437Z" fill="#8C3123"/>
<path d="M9.95312 0V5.05208L12.993 5.78125V1.51042L9.95312 0ZM16.9238 3.48958V16.5104L18.2865 15.8333V4.11458L16.9238 3.48958ZM9.95312 7.5V12.5521L12.993 12.1354V7.86458L9.95312 7.5ZM12.993 14.2187L9.95312 14.9479V20L12.993 18.4896V14.2187Z" fill="#E05243"/>
<path d="M9.95312 20V14.9479L6.91329 14.2188L6.91329 18.4896L9.95312 20ZM2.98248 16.5104L2.98248 3.48958L1.61979 4.16667L1.61979 15.8854L2.98248 16.5104ZM9.95312 12.5V7.44792L6.91329 7.86458L6.91329 12.1354L9.95312 12.5ZM6.91329 5.78125L9.95312 5.05208V4.76837e-07L6.91329 1.51042V5.78125Z" fill="#8C3123"/>
<path d="M12.9937 5.78125L9.95389 6.35417L6.91406 5.78125L9.95389 5L12.9937 5.78125Z" fill="#5E1F18"/>
<path d="M12.9937 14.2187L9.95389 13.6458L6.91406 14.2187L9.95389 15.052L12.9937 14.2187Z" fill="#F2B0A9"/>
</svg>
