<svg width="16" height="16" viewBox="0 0 16 16" fill="none" xmlns="http://www.w3.org/2000/svg">
<g clip-path="url(#clip0_1194_103573)">
<path fill-rule="evenodd" clip-rule="evenodd" d="M2.858 14.6089L1.13832 12.4666C0.724565 11.9512 0.5 11.3173 0.5 10.665V2.9075C0.5 1.93032 1.28179 1.11949 2.29035 1.05063L10.2661 0.506091C10.8455 0.466532 11.4214 0.620546 11.8974 0.942351L14.6996 2.83696C15.2012 3.1761 15.5 3.7305 15.5 4.32213V13.1416C15.5 14.0979 14.7313 14.8897 13.7438 14.9505L4.89166 15.4954C4.10367 15.5439 3.34199 15.2119 2.858 14.6089Z" fill="white"/>
<path d="M5.62746 6.78939V6.68784C5.62746 6.43039 5.83366 6.21689 6.09941 6.19914L8.03506 6.06989L10.7119 10.0118V6.55209L10.0229 6.46024V6.41204C10.0229 6.15154 10.2338 5.93664 10.503 5.92284L12.2642 5.83264V6.08609C12.2642 6.20504 12.1757 6.30684 12.0545 6.32734L11.6306 6.39904V12.0019L11.0987 12.1848C10.6543 12.3376 10.1596 12.174 9.90521 11.7902L7.30646 7.86864V11.6115L8.10631 11.7646L8.09521 11.8388C8.06026 12.0712 7.85961 12.247 7.61691 12.2578L5.62746 12.3463C5.60116 12.0964 5.78846 11.8728 6.04686 11.8457L6.30856 11.8182V6.82764L5.62746 6.78939Z" fill="black"/>
<path fill-rule="evenodd" clip-rule="evenodd" d="M10.3394 1.48339L2.36369 2.02793C1.88595 2.06055 1.51562 2.44463 1.51562 2.9075V10.665C1.51562 11.0999 1.66533 11.5224 1.94117 11.8661L3.66086 14.0084C3.9389 14.3547 4.37645 14.5455 4.82913 14.5176L13.6813 13.9727C14.135 13.9448 14.4882 13.5809 14.4882 13.1416V4.32213C14.4882 4.0503 14.3509 3.79558 14.1204 3.63976L11.3182 1.74515C11.0326 1.55207 10.6871 1.45966 10.3394 1.48339ZM2.75919 3.0285C2.64826 2.94637 2.70105 2.77528 2.8404 2.76528L10.3931 2.22356C10.6337 2.2063 10.8728 2.27256 11.0674 2.41044L12.5828 3.48407C12.6403 3.52483 12.6134 3.61282 12.5421 3.61669L4.54389 4.05168C4.30184 4.06485 4.06292 3.99374 3.87046 3.85125L2.75919 3.0285ZM4.16874 5.41535C4.16874 5.1555 4.37866 4.94089 4.64709 4.92627L13.1035 4.46573C13.3651 4.45148 13.5853 4.65267 13.5853 4.90591V12.5427C13.5853 12.802 13.3762 13.0164 13.1083 13.0316L4.7054 13.5098C4.41426 13.5264 4.16874 13.3026 4.16874 13.0208V5.41535Z" fill="black"/>
</g>
<defs>
<clipPath id="clip0_1194_103573">
<rect width="16" height="16" fill="white"/>
</clipPath>
</defs>
</svg>
