<svg width="16" height="11" viewBox="0 0 16 11" fill="none" xmlns="http://www.w3.org/2000/svg">
<g clip-path="url(#clip0_1249_67708)">
<path d="M12.4787 0.779442C13.584 0.680781 14.5599 1.4971 14.6581 2.60246C14.7564 3.70783 13.9396 4.68339 12.8342 4.78112C11.7294 4.8788 10.7546 4.06266 10.6564 2.95796C10.5583 1.85325 11.3741 0.878045 12.4787 0.779442Z" fill="#8639B4"/>
<path d="M3.6561 0H11.2431C11.1505 0.069587 11.0275 0.12542 10.9412 0.192955C10.3953 0.62055 10.0434 0.970057 9.78511 1.63461C9.74068 1.74892 9.66876 1.94562 9.65238 2.06314C9.24269 1.90515 8.35318 1.93503 7.88918 1.93504L6.66642 1.93805C6.64142 2.15369 6.59851 2.37792 6.53996 2.5868C6.50096 2.72588 6.45544 2.86523 6.42536 3.00639L5.41949 7.65778C5.38759 7.80256 5.16901 8.95855 5.10788 8.97114C4.85155 8.82083 4.59541 8.6189 4.33874 8.45954C4.12761 8.32845 3.93159 8.13047 3.71726 7.99131C3.32588 7.73717 2.9343 7.4764 2.56759 7.18768C2.44639 7.09217 2.319 7.01939 2.1956 6.91566C2.19086 6.83661 2.24562 6.60945 2.26428 6.51808C2.3227 6.23213 2.37781 5.94415 2.43961 5.65896C2.46923 5.52233 2.5157 5.38816 2.54443 5.24952L3.28916 1.64067C3.36439 1.28573 3.42831 0.936077 3.52819 0.586555C3.58093 0.402026 3.59426 0.183644 3.6561 0Z" fill="#8639B4"/>
<path d="M11.176 5.49898C11.4416 5.61511 11.7329 5.72818 12.0173 5.78583C13.011 5.98728 14.0254 5.69975 14.7608 5.0033C14.7575 5.39 14.7225 5.75654 14.6401 6.13532C14.6132 6.24256 14.6026 6.37712 14.5694 6.48043C14.316 7.26952 14.0537 8.06672 13.6099 8.77393C13.4586 8.96431 13.3266 9.17422 13.1828 9.36759C13.0474 9.54981 12.835 9.79148 12.6679 9.94731C12.5037 10.1003 12.3138 10.2686 12.1458 10.4171C11.8931 10.6404 11.5551 10.8589 11.2475 10.9913C11.239 10.9946 11.2356 10.9955 11.2268 11H3.1226C3.0538 10.9914 2.72178 10.9766 2.70316 10.9683C2.69725 10.8935 3.41811 10.4005 3.52399 10.3219L4.78383 9.39373C4.89869 9.30913 5.25564 8.98889 5.38314 8.98284C5.58664 8.97316 5.85013 8.97905 6.0571 8.97991L7.22609 8.98054C7.51937 8.98066 7.82702 8.9914 8.1274 8.95674C8.62886 8.89887 9.18983 8.67359 9.60307 8.38364C9.77001 8.2665 10.0516 7.98142 10.1823 7.83266C10.5346 7.42347 10.7992 6.94633 10.9598 6.43075C11.0061 6.28181 11.0365 6.11572 11.0782 5.96658C11.1203 5.81639 11.1382 5.64196 11.176 5.49898Z" fill="#8639B4"/>
</g>
<defs>
<clipPath id="clip0_1249_67708">
<rect width="15.9844" height="11" fill="white"/>
</clipPath>
</defs>
</svg>
