<svg width="18" height="18" viewBox="0 0 18 18" fill="none" xmlns="http://www.w3.org/2000/svg">
<path d="M6.53789 12.4701C5.60157 11.5888 5.05079 10.3771 5.05079 9.00016C5.05079 7.62319 5.60157 6.41147 6.48282 5.53022C7.25392 4.75913 7.25392 3.54741 6.48282 2.77632C5.71173 2.00522 4.50001 2.00522 3.72892 2.77632C2.18671 4.37359 1.19531 6.57672 1.19531 9.00016C1.19531 11.4236 2.18671 13.6267 3.78399 15.224C4.55508 15.9951 5.7668 15.9951 6.53789 15.224C7.25392 14.4529 7.25392 13.2412 6.53789 12.4701Z" fill="#FAE501"/>
<path d="M6.54316 5.53009C7.42441 4.59375 8.63613 4.04297 10.0131 4.04297C11.3901 4.04297 12.6018 4.59375 13.483 5.475C14.2541 6.24609 15.4658 6.24609 16.2369 5.475C17.008 4.70391 17.008 3.49219 16.2369 2.72109C14.6397 1.17891 12.4365 0.1875 10.0131 0.1875C7.58966 0.1875 5.38653 1.17891 3.78926 2.77618C3.01816 3.54728 3.01816 4.75899 3.78926 5.53009C4.56035 6.24609 5.77207 6.24609 6.54316 5.53009Z" fill="#4FB5E1"/>
<path d="M13.483 12.47C12.6018 13.4063 11.3901 13.9571 10.0131 13.9571C8.63613 13.9571 7.42441 13.4063 6.54316 12.5251C5.77207 11.754 4.56035 11.754 3.78926 12.5251C3.01816 13.2962 3.01816 14.5079 3.78926 15.279C5.38653 16.8212 7.58966 17.8126 10.0131 17.8126C12.4365 17.8126 14.6397 16.8212 16.2369 15.2239C17.008 14.4528 17.008 13.2411 16.2369 12.47C15.4658 11.754 14.2541 11.754 13.483 12.47Z" fill="#F05751"/>
<path d="M5.15431 6.08081C6.21895 6.08081 7.08203 5.21775 7.08203 4.15309C7.08203 3.08842 6.21895 2.22534 5.15431 2.22534C4.08964 2.22534 3.22656 3.08842 3.22656 4.15309C3.22656 5.21775 4.08964 6.08081 5.15431 6.08081Z" fill="#0681B6"/>
<path d="M5.15431 15.7747C6.21895 15.7747 7.08203 14.9116 7.08203 13.8469C7.08203 12.7823 6.21895 11.9192 5.15431 11.9192C4.08964 11.9192 3.22656 12.7823 3.22656 13.8469C3.22656 14.9116 4.08964 15.7747 5.15431 15.7747Z" fill="#CD4739"/>
</svg>
