<svg width="19" height="10" viewBox="0 0 19 10" fill="none" xmlns="http://www.w3.org/2000/svg">
<g clip-path="url(#clip0_1194_103566)">
<path d="M9.74019 2.95134C8.39223 2.95134 7.22176 3.70924 6.63027 4.82181C6.03878 3.7092 4.86835 2.95142 3.52042 2.95142C2.72817 2.95142 1.99707 3.21318 1.40884 3.65497V0.689651H1.40852C1.40029 0.307521 1.08849 0 0.704361 0C0.320194 0 0.00847547 0.307521 0.00032598 0.689651H0V6.53011H0.00146691C0.032761 8.44732 1.59571 9.9923 3.52038 9.9923C4.8683 9.9923 6.03878 9.23427 6.63022 8.12166C7.22176 9.23435 8.39219 9.99222 9.74011 9.99222C11.6844 9.99222 13.2605 8.41594 13.2605 6.4718C13.2606 4.52741 11.6843 2.95134 9.74019 2.95134ZM3.52038 8.58337C2.35414 8.58337 1.4088 7.63799 1.4088 6.47184C1.4088 5.30552 2.35418 4.36018 3.52038 4.36018C4.68661 4.36018 5.63199 5.30552 5.63199 6.47184C5.63199 7.63799 4.68661 8.58337 3.52038 8.58337ZM9.74019 8.58337C8.57392 8.58337 7.62862 7.63799 7.62862 6.47176C7.62862 5.30544 8.57396 4.36018 9.74019 4.36018C10.9063 4.36018 11.8518 5.30544 11.8518 6.47176C11.8518 7.63799 10.9063 8.58337 9.74019 8.58337Z" fill="#0075C9"/>
<path d="M17.9972 8.88433L16.1943 6.47441L17.9972 4.06444L17.9969 4.06415C18.2199 3.75366 18.1553 3.32055 17.8481 3.08976C17.5409 2.85921 17.107 2.91776 16.8709 3.2184L16.8708 3.21832L15.3147 5.29835L13.7586 3.21832L13.7584 3.21868C13.5223 2.91776 13.0885 2.85921 12.7812 3.08992C12.474 3.32071 12.4094 3.75382 12.6325 4.06423L12.6322 4.06444L14.4351 6.47441L12.6322 8.88433L12.6325 8.88454C12.4094 9.19503 12.474 9.62806 12.7812 9.85877C13.0885 10.0896 13.5223 10.0309 13.7584 9.73021L13.7586 9.73049L15.3147 7.65038L16.8708 9.73049L16.8709 9.73041C17.107 10.031 17.5409 10.0896 17.8481 9.85893C18.1553 9.62822 18.2199 9.19511 17.9969 8.88466L17.9972 8.88433Z" fill="#0075C9"/>
</g>
<defs>
<clipPath id="clip0_1194_103566">
<rect width="18.1291" height="10" fill="white"/>
</clipPath>
</defs>
</svg>
