<svg width="16" height="16" viewBox="0 0 16 16" fill="none" xmlns="http://www.w3.org/2000/svg">
<path fill-rule="evenodd" clip-rule="evenodd" d="M8.0026 1.33337C11.6845 1.33337 14.6693 4.31814 14.6693 8.00004C14.6693 11.6819 11.6845 14.6667 8.0026 14.6667C4.32071 14.6667 1.33594 11.6819 1.33594 8.00004C1.33594 4.31814 4.32071 1.33337 8.0026 1.33337ZM6.5293 10.3334C6.63954 10.9672 6.79139 11.5319 6.97396 12.0013C7.16745 12.4988 7.38172 12.8561 7.58529 13.0775C7.78826 13.2982 7.93004 13.3334 8.0026 13.3334C8.07517 13.3334 8.21694 13.2982 8.41992 13.0775C8.62348 12.8561 8.83776 12.4988 9.03125 12.0013C9.21382 11.5319 9.36567 10.9672 9.47591 10.3334H6.5293ZM3.20573 10.3334C3.76657 11.4842 4.72942 12.4026 5.91146 12.9069C5.84756 12.7709 5.7876 12.6296 5.73112 12.4844C5.49049 11.8656 5.30266 11.1355 5.17773 10.3334H3.20573ZM10.8275 10.3334C10.7025 11.1355 10.5147 11.8656 10.2741 12.4844C10.2176 12.6297 10.157 12.7708 10.0931 12.9069C11.2754 12.4026 12.2385 11.4844 12.7995 10.3334H10.8275ZM2.76367 7.00004C2.70221 7.324 2.66927 7.65819 2.66927 8.00004C2.66927 8.34189 2.70221 8.67608 2.76367 9.00004H5.03385C5.01346 8.67326 5.0026 8.33924 5.0026 8.00004C5.0026 7.66084 5.01346 7.32683 5.03385 7.00004H2.76367ZM6.37044 7.00004C6.34835 7.32345 6.33594 7.65755 6.33594 8.00004C6.33594 8.34253 6.34835 8.67663 6.37044 9.00004H9.63477C9.65686 8.67663 9.66927 8.34253 9.66927 8.00004C9.66927 7.65755 9.65686 7.32345 9.63477 7.00004H6.37044ZM10.9714 7.00004C10.9917 7.32683 11.0026 7.66084 11.0026 8.00004C11.0026 8.33924 10.9917 8.67326 10.9714 9.00004H13.2415C13.303 8.67608 13.3359 8.34189 13.3359 8.00004C13.3359 7.65819 13.303 7.324 13.2415 7.00004H10.9714ZM5.91146 3.09249C4.72931 3.59685 3.76661 4.51579 3.20573 5.66671H5.17773C5.30266 4.86462 5.49049 4.13444 5.73112 3.51567C5.78767 3.37025 5.84746 3.22871 5.91146 3.09249ZM8.0026 2.66671C7.93004 2.66671 7.78826 2.70187 7.58529 2.92257C7.38172 3.14396 7.16745 3.50125 6.97396 3.99874C6.79139 4.4682 6.63954 5.03289 6.5293 5.66671H9.47591C9.36567 5.03289 9.21382 4.4682 9.03125 3.99874C8.83776 3.50125 8.62348 3.14396 8.41992 2.92257C8.21695 2.70187 8.07517 2.66671 8.0026 2.66671ZM10.0931 3.09249C10.1571 3.22878 10.2175 3.37016 10.2741 3.51567C10.5147 4.13444 10.7025 4.86462 10.8275 5.66671H12.7995C12.2385 4.51561 11.2755 3.5968 10.0931 3.09249Z" fill="#2F3130"/>
</svg>
