<svg width="16" height="16" viewBox="0 0 16 16" fill="none" xmlns="http://www.w3.org/2000/svg">
<path fill-rule="evenodd" clip-rule="evenodd" d="M11.7267 12.9231H8.52668V8.67692L9.6713 9.84615C9.87499 10.0554 10.211 10.0554 10.4147 9.84615C10.6183 9.63494 10.6183 9.30043 10.4147 9.08922L8.44053 7.06153C8.32966 6.94661 8.17683 6.8817 8.01714 6.8817C7.85746 6.8817 7.70463 6.94661 7.59376 7.06153L5.61468 9.08861C5.41102 9.29982 5.41102 9.63432 5.61468 9.84553C5.81838 10.0548 6.15376 10.0548 6.35745 9.84553L7.47807 8.68861V12.9231H4.49961C2.69714 12.9231 1.23438 11.4154 1.23438 9.55692C1.23438 7.76615 2.59437 6.30153 4.32053 6.20307C4.72791 3.98768 6.98084 2.44922 9.38391 3.32922C10.8338 3.85845 11.7507 5.33538 11.7507 6.92307H11.8528C13.5661 6.92307 14.9267 8.43076 14.7587 10.2277C14.6091 11.7785 13.2485 12.9231 11.7267 12.9231Z" fill="#2F3130"/>
</svg>
