<svg width="16" height="16" viewBox="0 0 16 16" fill="none" xmlns="http://www.w3.org/2000/svg">
<path d="M13.5294 9.52859C13.5322 11.1624 12.6141 12.4919 11.3356 13.4295C9.9461 14.4533 8.20763 14.885 6.5006 14.6302C4.78087 14.3652 3.14966 13.3206 2.12485 11.9206C1.05505 10.4674 0.608607 8.64771 0.884353 6.8644C1.14788 5.16004 2.14087 3.5777 3.53073 2.56234C4.92062 1.54688 6.65719 1.12563 8.35788 1.39138C9.80591 1.61731 11.2912 2.39076 12.2994 3.44292C12.4469 3.60323 12.6293 3.75137 12.7617 3.92367C12.9982 4.2316 12.9076 4.6465 12.5977 4.86021C12.3877 5.00312 12.1144 5.01325 11.8944 4.88626C11.7285 4.79196 11.5288 4.45506 11.3371 4.26725C10.5242 3.47073 9.39062 2.86276 8.27041 2.66364C7.09407 2.45301 5.88108 2.6564 4.83777 3.2392C4.55652 3.39548 4.36416 3.5422 4.10399 3.72389C4.0553 3.7326 4.02013 3.74159 3.97077 3.73585C3.9718 3.75265 3.97285 3.76706 3.97483 3.78378C3.91385 3.81048 3.86157 3.81487 3.81663 3.86717C3.74462 3.95098 3.44116 4.21273 3.46562 4.31398C3.42852 4.36928 3.31321 4.49918 3.26451 4.55832C3.15418 4.69153 3.05068 4.83025 2.9544 4.97393C2.3291 5.91367 2.02082 7.02878 2.07462 8.15623C2.18846 11.0482 4.7599 13.5343 7.67565 13.4015C9.36644 13.3315 11.022 12.4537 11.871 10.9616C12.1451 10.4799 12.0024 10.4833 12.5174 10.1926C12.7505 10.061 13.3744 9.69723 13.5294 9.52859Z" fill="black"/>
<path d="M14.4041 6.36633C14.8048 6.31475 15.2442 6.53224 15.192 6.98443C15.1508 7.34055 14.9445 7.49852 14.7004 7.72154C13.2702 9.02793 11.5601 10.2295 9.53425 10.1613C8.79181 10.1345 8.16176 9.92857 7.66948 9.37672C7.50723 9.18807 7.39617 8.9471 7.35069 8.70335C7.25995 8.21711 7.32523 7.72372 7.60778 7.31183C7.92661 6.84702 8.47669 6.61196 9.01405 6.51169C9.91467 6.34363 11.1506 6.67333 11.9336 7.11066C12.185 7.25104 12.4011 7.43024 12.6378 7.59086C12.6699 7.61269 12.7271 7.65599 12.768 7.65343C12.9027 7.645 13.5881 7.00836 13.7291 6.87336C13.8801 6.72882 14.0249 6.55096 14.2011 6.43725C14.2647 6.39625 14.3307 6.38044 14.4041 6.36633ZM10.7179 8.73858C11.0593 8.62869 11.2305 8.57855 11.5422 8.40213C10.8619 7.95177 10.0393 7.69791 9.22051 7.75702C8.85656 7.84843 8.44306 7.95102 8.56505 8.44265C8.59908 8.57977 8.7069 8.6785 8.82694 8.74375C9.27006 8.97877 10.1819 8.90396 10.6523 8.75936C10.6742 8.75261 10.6961 8.74569 10.7179 8.73858Z" fill="black"/>
<path d="M3.47015 4.31397C3.4457 4.21272 3.74915 3.95097 3.82116 3.86716C3.8661 3.81486 3.91838 3.81047 3.97937 3.78377C3.97738 3.76705 3.97634 3.75264 3.9753 3.73585C4.02466 3.74158 4.05984 3.7326 4.10852 3.72388C4.04141 3.78194 3.47588 4.31136 3.47015 4.31397Z" fill="black"/>
</svg>
