<svg width="16" height="16" viewBox="0 0 16 16" fill="none" xmlns="http://www.w3.org/2000/svg">
<path d="M13 5.5C13 6.32843 12.3284 7 11.5 7C10.6716 7 10 6.32843 10 5.5C10 4.67157 10.6716 4 11.5 4C12.3284 4 13 4.67157 13 5.5Z" fill="#68737D"/>
<path fill-rule="evenodd" clip-rule="evenodd" d="M1 1H15C15.5523 1 16 1.44772 16 2V14C16 14.5523 15.5523 15 15 15H1C0.447715 15 0 14.5523 0 14V2C0 1.44772 0.447715 1 1 1ZM1 12.7929L5.295 8.4979C5.48277 8.30859 5.73836 8.2021 6.005 8.2021C6.27164 8.2021 6.52723 8.30859 6.71355 8.49645L10.005 11.7879L11.295 10.4979C11.4828 10.3086 11.7384 10.2021 12.005 10.2021C12.2716 10.2021 12.5272 10.3086 12.7141 10.497L15 12.7902V2H1V12.7929ZM14.794 14L12.005 11.2021L10.715 12.4921C10.5272 12.6814 10.2716 12.7879 10.005 12.7879C9.73836 12.7879 9.48277 12.6814 9.29645 12.4936L6.005 9.2021L1.20711 14H14.794Z" fill="#68737D"/>
<path d="M13 5.5C13 6.32843 12.3284 7 11.5 7C10.6716 7 10 6.32843 10 5.5C10 4.67157 10.6716 4 11.5 4C12.3284 4 13 4.67157 13 5.5Z" fill="#68737D"/>
<path fill-rule="evenodd" clip-rule="evenodd" d="M1 1H15C15.5523 1 16 1.44772 16 2V14C16 14.5523 15.5523 15 15 15H1C0.447715 15 0 14.5523 0 14V2C0 1.44772 0.447715 1 1 1ZM1 12.7929L5.295 8.4979C5.48277 8.30859 5.73836 8.2021 6.005 8.2021C6.27164 8.2021 6.52723 8.30859 6.71355 8.49645L10.005 11.7879L11.295 10.4979C11.4828 10.3086 11.7384 10.2021 12.005 10.2021C12.2716 10.2021 12.5272 10.3086 12.7141 10.497L15 12.7902V2H1V12.7929ZM14.794 14L12.005 11.2021L10.715 12.4921C10.5272 12.6814 10.2716 12.7879 10.005 12.7879C9.73836 12.7879 9.48277 12.6814 9.29645 12.4936L6.005 9.2021L1.20711 14H14.794Z" fill="#68737D"/>
</svg>
