<svg width="16" height="16" viewBox="0 0 16 16" fill="none" xmlns="http://www.w3.org/2000/svg">
<path fill-rule="evenodd" clip-rule="evenodd" d="M1 2V14H15V2H1ZM1 1H15C15.5523 1 16 1.44772 16 2V14C16 14.5523 15.5523 15 15 15H1C0.447715 15 0 14.5523 0 14V2C0 1.44772 0.447715 1 1 1ZM7.5 12C7.22386 12 7 11.7761 7 11.5C7 11.2239 7.22386 11 7.5 11H12.5C12.7761 11 13 11.2239 13 11.5C13 11.7761 12.7761 12 12.5 12H7.5ZM3.14645 5.35355C2.95118 5.15829 2.95118 4.84171 3.14645 4.64645C3.34171 4.45118 3.65829 4.45118 3.85355 4.64645L6.45707 7.25C6.83821 7.63884 6.83821 8.26116 6.46016 8.64682L3.86016 11.3468C3.66862 11.5457 3.35209 11.5517 3.15318 11.3602C2.95427 11.1686 2.9483 10.8521 3.13984 10.6532L5.74293 7.95L3.14645 5.35355Z" fill="#68737D"/>
</svg>
