<svg width="16" height="16" viewBox="0 0 16 16" fill="none" xmlns="http://www.w3.org/2000/svg">
<path d="M7.99967 1.3335C7.59058 1.3335 7.25893 1.66514 7.25893 2.07424V7.25942H2.07375C1.66465 7.25942 1.33301 7.59106 1.33301 8.00016C1.33301 8.40926 1.66465 8.7409 2.07375 8.7409H7.25893V13.9261C7.25893 14.3352 7.59058 14.6668 7.99967 14.6668C8.40877 14.6668 8.74042 14.3352 8.74042 13.9261V8.7409H13.9256C14.3347 8.7409 14.6663 8.40926 14.6663 8.00016C14.6663 7.59106 14.3347 7.25942 13.9256 7.25942H8.74042V2.07424C8.74042 1.66514 8.40877 1.3335 7.99967 1.3335Z" fill="#68737D"/>
</svg>
