<svg width="16" height="16" viewBox="0 0 16 16" fill="none" xmlns="http://www.w3.org/2000/svg">
<path d="M16 8C16 12.4183 12.4183 16 8 16C3.58172 16 0 12.4183 0 8C0 3.58172 3.58172 0 8 0C12.4183 0 16 3.58172 16 8ZM2.4 8C2.4 11.0928 4.90721 13.6 8 13.6C11.0928 13.6 13.6 11.0928 13.6 8C13.6 4.90721 11.0928 2.4 8 2.4C4.90721 2.4 2.4 4.90721 2.4 8Z" fill="#DAEEE6"/>
<path d="M8 1.2C8 0.537258 7.45977 -0.00921398 6.80447 0.0898291C5.64697 0.264776 4.53689 0.692459 3.55544 1.34824C2.23985 2.22729 1.21446 3.47672 0.608964 4.93853C0.00346269 6.40034 -0.154964 8.00887 0.153718 9.56072C0.4624 11.1126 1.22433 12.538 2.34315 13.6569C3.46197 14.7757 4.88743 15.5376 6.43928 15.8463C7.99113 16.155 9.59966 15.9965 11.0615 15.391C12.5233 14.7855 13.7727 13.7602 14.6518 12.4446C15.3075 11.4631 15.7352 10.353 15.9102 9.19553C16.0092 8.54023 15.4627 8 14.8 8C14.1373 8 13.6129 8.54328 13.4719 9.19086C13.3235 9.87299 13.048 10.5249 12.6562 11.1112C12.0409 12.0321 11.1663 12.7499 10.143 13.1737C9.11976 13.5976 7.99379 13.7085 6.90749 13.4924C5.8212 13.2763 4.82338 12.743 4.0402 11.9598C3.25703 11.1766 2.72368 10.1788 2.5076 9.09251C2.29153 8.00621 2.40242 6.88024 2.82627 5.85697C3.25013 4.83371 3.96789 3.95911 4.88881 3.34377C5.47512 2.95201 6.12701 2.67654 6.80914 2.52808C7.45672 2.38714 8 1.86274 8 1.2Z" fill="#038153"/>
</svg>
