<svg width="16" height="16" viewBox="0 0 16 16" fill="none" xmlns="http://www.w3.org/2000/svg">
<path d="M16 8C16 12.4183 12.4183 16 8 16C3.58172 16 0 12.4183 0 8C0 3.58172 3.58172 0 8 0C12.4183 0 16 3.58172 16 8ZM2.4 8C2.4 11.0928 4.90721 13.6 8 13.6C11.0928 13.6 13.6 11.0928 13.6 8C13.6 4.90721 11.0928 2.4 8 2.4C4.90721 2.4 2.4 4.90721 2.4 8Z" fill="#FFEEDB"/>
<path d="M8 1.2C8 0.537258 7.45975 -0.00923235 6.80445 0.089804C5.12517 0.343595 3.55871 1.12758 2.34315 2.34315C0.842855 3.84344 1.85488e-07 5.87827 0 8C-1.85488e-07 10.1217 0.842854 12.1566 2.34315 13.6569C3.55871 14.8724 5.12517 15.6564 6.80445 15.9102C7.45975 16.0092 8 15.4627 8 14.8C8 14.1373 7.4567 13.6129 6.80912 13.4719C5.76837 13.2454 4.80505 12.7247 4.0402 11.9598C2.99 10.9096 2.4 9.48521 2.4 8C2.4 6.51479 2.99 5.09041 4.0402 4.0402C4.80505 3.27535 5.76837 2.75459 6.80912 2.52807C7.4567 2.38712 8 1.86274 8 1.2Z" fill="#ED8F1C"/>
</svg>
