<svg width="18" height="18" viewBox="0 0 18 18" fill="none" xmlns="http://www.w3.org/2000/svg">
<path d="M14.1648 1.75884C14.1482 1.61152 14.0236 1.50015 13.8753 1.5C13.727 1.49985 13.6022 1.61096 13.5853 1.75825C13.5062 2.44396 13.3025 2.91438 12.9835 3.23345C12.6644 3.55253 12.194 3.75617 11.5082 3.83525C11.3609 3.85224 11.2499 3.97703 11.25 4.1253C11.2502 4.27357 11.3615 4.39813 11.5088 4.41481C12.1829 4.49117 12.6641 4.69477 12.9913 5.01603C13.3167 5.33555 13.5241 5.80531 13.5844 6.48414C13.5979 6.63475 13.7241 6.75017 13.8753 6.75C14.0265 6.74983 14.1526 6.63413 14.1655 6.48349C14.2234 5.81612 14.4307 5.33578 14.7582 5.00823C15.0858 4.68068 15.5661 4.47335 16.2334 4.41558C16.3841 4.40254 16.4998 4.27654 16.5 4.12533C16.5001 3.97412 16.3847 3.84786 16.2341 3.83448C15.5553 3.77418 15.0856 3.56668 14.766 3.24128C14.4448 2.91409 14.2411 2.43296 14.1648 1.75884Z" fill="#8D59B1"/>
<path d="M8.9952 3.66559C8.9523 3.28676 8.63205 3.00039 8.25075 3C7.86953 2.99961 7.5486 3.28532 7.50495 3.66407C7.30157 5.42733 6.77793 6.63697 5.95745 7.45745C5.13698 8.2779 3.92733 8.80155 2.16407 9.00495C1.78532 9.0486 1.49961 9.36953 1.5 9.75075C1.50039 10.1321 1.78676 10.4523 2.16559 10.4952C3.89903 10.6916 5.13623 11.2151 5.97756 12.0413C6.81432 12.8629 7.34789 14.0707 7.50293 15.8164C7.53735 16.2037 7.86203 16.5005 8.25083 16.5C8.6397 16.4996 8.9637 16.202 8.99723 15.8147C9.14573 14.0986 9.6789 12.8635 10.5212 12.0212C11.3635 11.1789 12.5986 10.6457 14.3147 10.4972C14.702 10.4637 14.9996 10.1397 15 9.75083C15.0005 9.36203 14.7037 9.03735 14.3164 9.00293C12.5707 8.8479 11.3629 8.31435 10.5413 7.47756C9.71513 6.63623 9.19155 5.39903 8.9952 3.66559Z" fill="#8D59B1"/>
</svg>
