<svg width="12" height="12" viewBox="0 0 12 12" fill="none" xmlns="http://www.w3.org/2000/svg">
<path d="M10 3.17769V1.5C10 1.22386 10.2239 1 10.5 1C10.7761 1 11 1.22386 11 1.5V4C11 4.57614 10.5761 5 10 5H7.5C7.22386 5 7 4.77614 7 4.5C7 4.22386 7.22386 4 7.5 4H9.37537C8.33852 2.65831 7.34847 2 5.9 2C3.69893 2 2 3.75286 2 6C2 8.20995 3.76251 10 5.9 10C7.01159 10 8.0891 9.49716 8.8263 8.66782C9.00975 8.46143 9.32579 8.44284 9.53218 8.6263C9.73857 8.80975 9.75716 9.12579 9.5737 9.33218C8.65014 10.3712 7.30269 11 5.9 11C3.20672 11 1 8.7588 1 6C1 3.20745 3.13953 1 5.9 1C7.64331 1 8.84267 1.74845 10 3.17769Z" fill="#68737D"/>
</svg>
