<svg width="16" height="16" viewBox="0 0 16 16" fill="none" xmlns="http://www.w3.org/2000/svg">
<path d="M12.5916 1.56406C12.5768 1.43311 12.4661 1.33412 12.3343 1.33398C12.2025 1.33385 12.0915 1.43261 12.0765 1.56354C12.0061 2.17306 11.8251 2.59121 11.5415 2.87483C11.2579 3.15845 10.8397 3.33946 10.2302 3.40976C10.0993 3.42486 10.0005 3.53579 10.0007 3.66758C10.0008 3.79938 10.0998 3.9101 10.2307 3.92493C10.8299 3.9928 11.2577 4.17378 11.5485 4.45934C11.8377 4.74336 12.0221 5.16092 12.0757 5.76433C12.0877 5.89821 12.1999 6.0008 12.3343 6.00065C12.4687 6.0005 12.5807 5.89766 12.5923 5.76375C12.6437 5.17054 12.8279 4.74357 13.1191 4.45241C13.4103 4.16126 13.8372 3.97696 14.4304 3.92561C14.5643 3.91402 14.6672 3.80202 14.6673 3.66761C14.6675 3.5332 14.5649 3.42097 14.431 3.40908C13.8276 3.35548 13.4101 3.17103 13.126 2.88178C12.8405 2.59095 12.6595 2.16328 12.5916 1.56406Z" fill="#8D59B1"/>
<path d="M7.99639 3.25895C7.95825 2.92221 7.67359 2.66766 7.33465 2.66732C6.99579 2.66697 6.71052 2.92093 6.67172 3.2576C6.49093 4.82494 6.02548 5.90018 5.29617 6.6295C4.56685 7.35878 3.49161 7.82425 1.92426 8.00505C1.5876 8.04385 1.33364 8.32912 1.33398 8.66799C1.33433 9.00692 1.58888 9.29158 1.92562 9.32972C3.46646 9.50425 4.56618 9.96965 5.31404 10.704C6.05782 11.4343 6.53211 12.508 6.66992 14.0597C6.70052 14.4039 6.98912 14.6677 7.33472 14.6673C7.68039 14.6669 7.96839 14.4025 7.99819 14.0581C8.13019 12.5327 8.60412 11.4349 9.35279 10.6861C10.1015 9.93745 11.1994 9.46352 12.7248 9.33152C13.0691 9.30172 13.3336 9.01372 13.334 8.66805C13.3344 8.32245 13.0706 8.03385 12.7263 8.00325C11.1747 7.86545 10.101 7.39118 9.37065 6.64737C8.63632 5.89952 8.17092 4.79979 7.99639 3.25895Z" fill="#8D59B1"/>
</svg>
