<svg width="16" height="16" viewBox="0 0 16 16" fill="none" xmlns="http://www.w3.org/2000/svg">
<path fill-rule="evenodd" clip-rule="evenodd" d="M4.12715 5.35807C3.90531 5.57991 3.55625 5.59697 3.31484 5.40926L3.25686 5.35807L1.41071 3.51192C1.18887 3.29008 1.17181 2.94101 1.35952 2.6996L1.41071 2.64163L3.25686 0.795476C3.4787 0.57364 3.82777 0.556576 4.06918 0.744283L4.12715 0.795476L5.79355 2.46139H11.6647L11.7993 2.46426C13.4513 2.53476 14.7689 3.89634 14.7689 5.56566C14.7689 7.23499 13.4513 8.59656 11.7993 8.66707L11.6647 8.66994L10.0465 8.66939L8.43484 10.2811C8.21301 10.503 7.86394 10.52 7.62253 10.3323L7.56456 10.2811L5.95231 8.66939L4.28004 8.66994L4.17317 8.67302C3.21842 8.72834 2.46124 9.52012 2.46124 10.4887C2.46124 11.4574 3.21842 12.2491 4.17317 12.3045L4.28004 12.3075H11.692V11.0768C11.692 10.5524 12.2985 10.2784 12.6905 10.5948L12.7425 10.6416L14.5887 12.4878C14.8105 12.7096 14.8276 13.0587 14.6399 13.3001L14.5887 13.3581L12.7425 15.2042C12.3717 15.575 11.7491 15.34 11.6957 14.839L11.692 14.7691V13.5383H4.28004L4.14776 13.5355C2.52489 13.4662 1.23047 12.1286 1.23047 10.4887C1.23047 8.84883 2.52489 7.51125 4.14776 7.44198L4.28004 7.43917L5.84339 7.43862L7.56456 5.71855C7.78639 5.49672 8.13546 5.47965 8.37687 5.66736L8.43484 5.71855L10.1554 7.43862L11.6647 7.43917L11.7747 7.43599C12.7582 7.379 13.5382 6.56342 13.5382 5.56566C13.5382 4.56791 12.7582 3.75232 11.7747 3.69534L11.6647 3.69216H5.79293L4.12715 5.35807Z" fill="#646864"/>
</svg>
