<svg width="16" height="16" viewBox="0 0 16 16" fill="none" xmlns="http://www.w3.org/2000/svg">
<path fill-rule="evenodd" clip-rule="evenodd" d="M2.5 16C2.22386 16 2 15.7761 2 15.5C2 15.2239 2.22386 15 2.5 15H12.5C12.7761 15 13 15.2239 13 15.5C13 15.7761 12.7761 16 12.5 16H2.5ZM3 1.5C3 1.22386 3.22386 1 3.5 1C3.77614 1 4 1.22386 4 1.5V9.5C4 11.4239 5.57614 13 7.5 13C9.42386 13 11 11.4239 11 9.5V1.5C11 1.22386 11.2239 1 11.5 1C11.7761 1 12 1.22386 12 1.5V9.5C12 11.9761 9.97614 14 7.5 14C5.02386 14 3 11.9761 3 9.5V1.5Z" fill="#68737D"/>
</svg>
