<svg width="16" height="16" viewBox="0 0 16 16" fill="none" xmlns="http://www.w3.org/2000/svg">
<path fill-rule="evenodd" clip-rule="evenodd" d="M12.4404 0.3009C12.8418 -0.100388 13.4686 -0.100212 13.8701 0.3009L15.6992 2.13C16.1005 2.53151 16.1005 3.15824 15.6992 3.55969L3.40723 15.8517C3.31202 15.9469 3.18248 16.0001 3.04785 16.0001H0.507812C0.227385 16.0001 6.69849e-05 15.7727 0 15.4923V12.9523C0.00012423 12.8177 0.053292 12.688 0.148438 12.5929L12.4404 0.3009ZM1.01562 13.1632V14.9845H2.83691L12.7422 5.07922L10.9209 3.25793L1.01562 13.1632ZM2.81641 0.167111C2.83861 -0.0549035 3.16139 -0.0549035 3.18359 0.167111C3.32388 1.5679 4.43221 2.67624 5.83301 2.81653C6.05502 2.83873 6.05502 3.16151 5.83301 3.18371C4.43221 3.324 3.32388 4.43233 3.18359 5.83313C3.16139 6.05514 2.83861 6.05514 2.81641 5.83313C2.67612 4.43233 1.56779 3.324 0.166992 3.18371C-0.0550227 3.16151 -0.0550227 2.83873 0.166992 2.81653C1.56779 2.67624 2.67612 1.5679 2.81641 0.167111ZM11.6387 2.53918L13.46 4.36047L14.9766 2.84485L13.1553 1.02356L11.6387 2.53918ZM7.4082 0.083127C7.41953 -0.0275263 7.58047 -0.0275264 7.5918 0.083127C7.66185 0.7837 8.21642 1.33827 8.91699 1.40832C9.02765 1.41965 9.02765 1.58059 8.91699 1.59192C8.21642 1.66197 7.66185 2.21654 7.5918 2.91711C7.58047 3.02776 7.41953 3.02776 7.4082 2.91711C7.33815 2.21654 6.78358 1.66197 6.08301 1.59192C5.97235 1.58059 5.97235 1.41965 6.08301 1.40832C6.78358 1.33827 7.33815 0.7837 7.4082 0.083127Z" fill="#68737D"/>
</svg>
