<svg width="16" height="16" viewBox="0 0 16 16" fill="none" xmlns="http://www.w3.org/2000/svg">
<path d="M7.5 2.0001H8.38151L5.59579 15.0001H4.5C4.22386 15.0001 4 15.224 4 15.5001C4 15.7762 4.22386 16.0001 4.5 16.0001H5.99031C5.99712 16.0002 6.0039 16.0002 6.01067 16.0001H7.5C7.77614 16.0001 8 15.7762 8 15.5001C8 15.224 7.77614 15.0001 7.5 15.0001H6.61849L9.40421 2.0001H10.5C10.7761 2.0001 11 1.77625 11 1.5001C11 1.22396 10.7761 1.0001 10.5 1.0001H9.00965C9.00287 0.999965 8.99611 0.999966 8.98937 1.0001H7.5C7.22386 1.0001 7 1.22396 7 1.5001C7 1.77625 7.22386 2.0001 7.5 2.0001Z" fill="#68737D"/>
</svg>
