<svg width="16" height="16" viewBox="0 0 16 16" fill="none" xmlns="http://www.w3.org/2000/svg">
<path fill-rule="evenodd" clip-rule="evenodd" d="M5.49954 3C5.22339 3 4.99954 2.77614 4.99954 2.5C4.99954 2.22386 5.22339 2 5.49954 2H14.4995C14.7757 2 14.9995 2.22386 14.9995 2.5C14.9995 2.77614 14.7757 3 14.4995 3H5.49954ZM5.49954 8C5.22339 8 4.99954 7.77614 4.99954 7.5C4.99954 7.22386 5.22339 7 5.49954 7H14.4995C14.7757 7 14.9995 7.22386 14.9995 7.5C14.9995 7.77614 14.7757 8 14.4995 8H5.49954ZM5.49954 13C5.22339 13 4.99954 12.7761 4.99954 12.5C4.99954 12.2239 5.22339 12 5.49954 12H14.4995C14.7757 12 14.9995 12.2239 14.9995 12.5C14.9995 12.7761 14.7757 13 14.4995 13H5.49954ZM1.60954 4.8C1.40954 4.8 1.27954 4.67 1.27954 4.46V4.32C1.27954 4.12 1.40954 3.99 1.60954 3.99H2.04954V2.25L1.96954 2.33C1.88954 2.4 1.81954 2.43 1.73954 2.43C1.67954 2.43 1.58954 2.41 1.49954 2.31L1.39954 2.22C1.33779 2.15504 1.30219 2.06958 1.29954 1.98C1.29954 1.92 1.31954 1.84 1.40954 1.75L2.03954 1.14C2.14954 1.04 2.25954 1 2.38954 1H2.59954C2.79954 1 2.92954 1.13 2.92954 1.34V4H3.35954C3.56954 4 3.68954 4.13 3.68954 4.33V4.47C3.68954 4.68 3.55954 4.81 3.35954 4.81H1.60954V4.8ZM1.60954 9.85C1.39954 9.85 1.25954 9.72 1.25954 9.52C1.25954 8.62 1.84954 8.2 2.32954 7.87C2.64954 7.65 2.91954 7.46 2.91954 7.22C2.91954 6.95 2.69954 6.85 2.50954 6.85C2.28954 6.85 2.13954 7 2.07954 7.07C1.97954 7.17 1.88954 7.21 1.79954 7.21C1.72954 7.21 1.65954 7.18 1.59954 7.13L1.46954 7.03C1.30954 6.91 1.27954 6.74 1.38954 6.58C1.58954 6.31 1.95954 5.99 2.55954 5.99C3.30954 5.99 3.83954 6.47 3.83954 7.16C3.83954 7.88 3.26954 8.25 2.81954 8.55C2.55954 8.73 2.33954 8.88 2.24954 9.05H3.54954C3.75954 9.05 3.88954 9.18 3.88954 9.38V9.52C3.88954 9.73 3.75954 9.85 3.54954 9.85H1.60954ZM2.46954 14.85C1.96954 14.85 1.59954 14.65 1.36954 14.48C1.20954 14.36 1.18954 14.18 1.29954 14.02L1.39954 13.87C1.47954 13.74 1.57954 13.72 1.64954 13.72C1.71954 13.72 1.77954 13.74 1.85954 13.79C1.98954 13.88 2.17954 14 2.42954 14C2.72954 14 2.93954 13.83 2.93954 13.59C2.93954 13.2 2.44954 13.16 2.30954 13.16C2.06954 13.16 1.95954 13.09 1.88954 12.95C1.79954 12.77 1.82954 12.63 1.92954 12.5C1.92954 12.5 2.50954 11.82 2.51954 11.8H1.64954C1.44954 11.8 1.31954 11.67 1.31954 11.47V11.33C1.31954 11.12 1.44954 11 1.64954 11H3.39954C3.60954 11 3.73954 11.13 3.73954 11.33C3.73954 11.53 3.69954 11.63 3.60954 11.73L2.97954 12.46C3.43954 12.6 3.83954 12.97 3.83954 13.57C3.84954 14.2 3.36954 14.85 2.46954 14.85Z" fill="#68737D"/>
</svg>
