<svg width="16" height="16" viewBox="0 0 16 16" fill="none" xmlns="http://www.w3.org/2000/svg">
<path d="M9.5 3H3.5C2.83333 3 2.83333 4 3.5 4H9.5C10.1667 4 10.1667 3 9.5 3Z" fill="#68737D"/>
<path d="M12.5 10C13.1667 10 13.1667 9 12.5 9H6.5C5.83333 9 5.83333 10 6.5 10H12.5Z" fill="#68737D"/>
<path d="M12.5 12C13.1667 12 13.1667 13 12.5 13H6.5C5.83333 13 5.83333 12 6.5 12H12.5Z" fill="#68737D"/>
<path fill-rule="evenodd" clip-rule="evenodd" d="M3 10H1C0.447715 10 0 9.55229 0 9V1C0 0.447715 0.447715 0 1 0H12C12.5523 0 13 0.447715 13 1V6H15C15.5523 6 16 6.44772 16 7V15C16 15.5523 15.5523 16 15 16H4C3.44772 16 3 15.5523 3 15V10ZM12 6V1H1V9H3V7C3 6.44772 3.44772 6 4 6H12ZM4 15V7H15V15H4Z" fill="#68737D"/>
</svg>
