<svg width="16" height="16" viewBox="0 0 16 16" fill="none" xmlns="http://www.w3.org/2000/svg">
<path fill-rule="evenodd" clip-rule="evenodd" d="M1.5 2C1.22386 2 1 1.77614 1 1.5C1 1.22386 1.22386 1 1.5 1H14.5C14.7761 1 15 1.22386 15 1.5C15 1.77614 14.7761 2 14.5 2H1.5ZM1.5 6C1.22386 6 1 5.77614 1 5.5C1 5.22386 1.22386 5 1.5 5H10.5C10.7761 5 11 5.22386 11 5.5C11 5.77614 10.7761 6 10.5 6H1.5ZM1.5 10C1.22386 10 1 9.77614 1 9.5C1 9.22386 1.22386 9 1.5 9H14.5C14.7761 9 15 9.22386 15 9.5C15 9.77614 14.7761 10 14.5 10H1.5ZM1.5 14C1.22386 14 1 13.7761 1 13.5C1 13.2239 1.22386 13 1.5 13H10.5C10.7761 13 11 13.2239 11 13.5C11 13.7761 10.7761 14 10.5 14H1.5Z" fill="#68737D"/>
</svg>
