<svg width="16" height="16" viewBox="0 0 16 16" fill="none" xmlns="http://www.w3.org/2000/svg">
<path fill-rule="evenodd" clip-rule="evenodd" d="M9 4C9 3.72386 9.22386 3.5 9.5 3.5C9.77614 3.5 10 3.72386 10 4V11.7C10 12.7761 9.07614 13.7 8 13.7C6.92386 13.7 6 12.7761 6 11.7V3C6 1.32386 7.32386 0 9 0C10.6761 0 12 1.32386 12 3V12C12 14.1761 10.1761 16 8 16C5.82386 16 4 14.1761 4 12V4C4 3.72386 4.22386 3.5 4.5 3.5C4.77614 3.5 5 3.72386 5 4V12C5 13.6239 6.37614 15 8 15C9.62386 15 11 13.6239 11 12V3C11 1.87614 10.1239 1 9 1C7.87614 1 7 1.87614 7 3V11.7C7 12.2239 7.47614 12.7 8 12.7C8.52386 12.7 9 12.2239 9 11.7V4Z" fill="#68737D"/>
</svg>
