<svg width="16" height="16" viewBox="0 0 16 16" fill="none" xmlns="http://www.w3.org/2000/svg">
<path fill-rule="evenodd" clip-rule="evenodd" d="M10.7122 7.24979L6.8362 3.34859C6.69439 3.20868 6.4829 3.16832 6.30004 3.24626C6.11719 3.32421 5.99883 3.50518 6 3.70505V12.2105C6 12.656 6.53123 12.8739 6.8362 12.557L10.7122 8.65581C11.0959 8.26965 11.0959 7.63595 10.7122 7.24979ZM8 16C3.58172 16 0 12.4183 0 8C0 3.58172 3.58172 0 8 0C12.4183 0 16 3.58172 16 8C16 12.4183 12.4183 16 8 16ZM8 15C11.866 15 15 11.866 15 8C15 4.13401 11.866 1 8 1C4.13401 1 1 4.13401 1 8C1 11.866 4.13401 15 8 15Z" fill="#68737D"/>
</svg>
