<svg width="16" height="16" viewBox="0 0 16 16" fill="none" xmlns="http://www.w3.org/2000/svg">
<path d="M2.5 4C3.32843 4 4 3.32843 4 2.5C4 1.67157 3.32843 1 2.5 1C1.67157 1 1 1.67157 1 2.5C1 3.32843 1.67157 4 2.5 4Z" fill="#68737D"/>
<path d="M5 2.5C5 2.77614 5.22386 3 5.5 3H14.5C14.7761 3 15 2.77614 15 2.5C15 2.22386 14.7761 2 14.5 2H5.5C5.22386 2 5 2.22386 5 2.5Z" fill="#68737D"/>
<path d="M5 7.5C5 7.77614 5.22386 8 5.5 8H14.5C14.7761 8 15 7.77614 15 7.5C15 7.22386 14.7761 7 14.5 7H5.5C5.22386 7 5 7.22386 5 7.5Z" fill="#68737D"/>
<path d="M5 12.5C5 12.7761 5.22386 13 5.5 13H14.5C14.7761 13 15 12.7761 15 12.5C15 12.2239 14.7761 12 14.5 12H5.5C5.22386 12 5 12.2239 5 12.5Z" fill="#68737D"/>
<path d="M4 7.5C4 8.32843 3.32843 9 2.5 9C1.67157 9 1 8.32843 1 7.5C1 6.67157 1.67157 6 2.5 6C3.32843 6 4 6.67157 4 7.5Z" fill="#68737D"/>
<path d="M2.5 14C3.32843 14 4 13.3284 4 12.5C4 11.6716 3.32843 11 2.5 11C1.67157 11 1 11.6716 1 12.5C1 13.3284 1.67157 14 2.5 14Z" fill="#68737D"/>
</svg>
