<svg width="23" height="23" viewBox="0 0 23 23" fill="none" xmlns="http://www.w3.org/2000/svg">
<path fill-rule="evenodd" clip-rule="evenodd" d="M17.9973 2.84076C19.5662 2.84076 20.8382 4.11266 20.8382 5.68167V15.151C20.8382 16.72 19.5662 17.9919 17.9973 17.9919H11.6308L7.12083 20.6985C6.82836 20.8739 6.46322 20.8787 6.16646 20.7107C5.86979 20.5426 5.68706 20.2272 5.68706 19.8862V17.9919H4.73935C3.17053 17.9917 1.89844 16.7199 1.89844 15.151V5.68167C1.89844 4.1128 3.17053 2.84096 4.73935 2.84076H17.9973ZM4.73935 4.73507C4.21652 4.73527 3.79275 5.15879 3.79275 5.68167V15.151C3.79275 15.6739 4.21651 16.0985 4.73935 16.0987H6.63366C7.15665 16.0987 7.58026 16.5223 7.58026 17.0453V18.2139L10.8806 16.233L10.996 16.1753C11.1134 16.125 11.2403 16.0987 11.3689 16.0987H17.9973C18.5203 16.0987 18.9439 15.674 18.9439 15.151V5.68167C18.9439 5.15869 18.5202 4.73507 17.9973 4.73507H4.73935Z" fill="#5C6970"/>
</svg>
