<svg width="16" height="16" viewBox="0 0 16 16" fill="none" xmlns="http://www.w3.org/2000/svg">
<path d="M16 8C16 12.4183 12.4183 16 8 16C3.58172 16 0 12.4183 0 8C0 3.58172 3.58172 0 8 0C12.4183 0 16 3.58172 16 8ZM2.4 8C2.4 11.0928 4.90721 13.6 8 13.6C11.0928 13.6 13.6 11.0928 13.6 8C13.6 4.90721 11.0928 2.4 8 2.4C4.90721 2.4 2.4 4.90721 2.4 8Z" fill="#CEE2F2"/>
<path d="M8 1.2C8 0.537258 7.45978 -0.00920805 6.80448 0.0898327C6.08298 0.198879 5.37791 0.406411 4.70938 0.708101C3.67513 1.17483 2.752 1.85622 2.00128 2.70705C1.25055 3.55788 0.689407 4.55867 0.3551 5.64299C0.139005 6.34388 0.0208855 7.06931 0.00253066 7.79878C-0.0141401 8.46131 0.595342 8.92927 1.25293 8.84675C1.91051 8.76422 2.36319 8.15989 2.42238 7.4998C2.45727 7.11079 2.53285 6.72542 2.64857 6.35009C2.88258 5.59107 3.27539 4.89052 3.80089 4.29494C4.3264 3.69936 4.97259 3.22238 5.69656 2.89567C6.05456 2.73412 6.42752 2.61114 6.80915 2.52808C7.45674 2.38715 8 1.86274 8 1.2Z" fill="#1F73B7"/>
</svg>
